<svg width="1896" height="1542" viewBox="0 0 1896 1542" fill="none" xmlns="http://www.w3.org/2000/svg">
<path d="M1893.04 1361.12L1875.66 1512.63L1873.69 1529.75L1856.48 1530.34L1542.05 1541.23L1484.5 1411.03L1831.69 1364.41L1484.5 1411.03L1476.08 1391.98L1870.51 1339.02L1895.96 1335.61L1893.04 1361.12ZM1669.82 692.418L1672.83 777.903L1673.54 797.903L1653.54 798.596L1220.44 813.591L1165.76 689.87L1649.14 673.134L1669.12 672.442L1669.82 692.418ZM1832.29 23.0713L1814.91 174.581L1812.59 194.751L1792.46 192.136L1369.68 137.224C1327.57 138.773 1288.72 143.772 1253.06 152.138L1252.68 152.226L1252.31 152.299C1219.75 158.627 1184.8 167.366 1147.46 178.548L1165.44 689.145L882.545 49.0801L881.979 32.998L901.979 32.3057L1811.72 0.803711L1834.93 0L1832.29 23.0713Z" fill="#E82A5B"/>
<path d="M737.682 11.1523L740.322 17.0898L1407.05 1516.95L1413.31 1531.01H1146.6L1144.01 1524.9L978.228 1132.82H324.787L161.231 1524.86L158.665 1531.01H15.389L21.64 1516.95L688.372 17.0898L691.012 11.1523H737.682ZM366.839 1028.75H933.983L652.543 348.014L366.839 1028.75Z" fill="#183A59" stroke="#183A59" stroke-width="20"/>
</svg>
