<svg xmlns="http://www.w3.org/2000/svg" width="100" height="47" viewBox="0 0 100 47" fill="none"><path d="M2.70329 2.92622V25.6422C2.70302 25.9291 2.84278 26.0449 3.09016 26.0291H6.99539C7.37685 26.0475 7.42852 25.8497 7.41511 25.6094V16.6785C7.39511 16.3171 7.5858 16.3197 7.77461 16.319H17.7986C18.0243 16.3171 18.1894 16.3954 18.1828 16.7031V25.5692C18.1812 25.9198 18.3751 26.0262 18.6476 26.0341H22.4119C22.6829 26.043 22.8663 25.9401 22.856 25.59V2.94082C22.8781 2.5454 22.6687 2.44457 22.3712 2.45598H18.5724C18.2418 2.45833 18.1272 2.62474 18.1402 2.88819V11.598C18.1609 11.9484 17.9826 11.9825 17.7723 11.9659H7.71074C7.46358 11.9804 7.38148 11.8559 7.39542 11.6505V2.83863C7.37085 2.52512 7.19706 2.49141 7.02022 2.46343H3.09746C2.84184 2.48038 2.69753 2.62038 2.70329 2.92622ZM44.3395 10.8243L47.5805 9.05779C47.8139 8.94056 47.8224 8.77646 47.7265 8.59062C43.9456 0.187012 32.3548 0.633731 28.0568 6.04381C23.7148 11.7694 24.7359 18.3139 28.0568 22.4596C33.1187 28.2947 43.5826 28.2239 47.7531 19.9231C47.8857 19.6794 47.8474 19.453 47.6499 19.3192L44.2639 17.7295C43.9867 17.5778 43.7867 17.6388 43.6652 17.9153C41.0908 22.4575 36.5111 22.8649 33.0531 20.7438C29.2986 18.1894 28.5063 11.1526 33.0531 7.77808C36.201 5.68107 41.0554 5.96879 43.7375 10.6376C43.8674 10.9019 44.0734 10.9491 44.3395 10.8243ZM48.3835 26.0218H52.4566C52.6812 26.0267 52.8055 25.8452 52.8945 25.5984L54.6489 20.847C54.7378 20.6005 54.9182 20.5092 55.1444 20.4961H58.2413C60.5098 20.4834 61.8156 19.1873 62.1021 16.532C62.1258 16.2847 61.9946 16.2234 61.8131 16.2223H56.7961C56.5068 16.2465 56.4256 16.1206 56.4864 15.892L59.5833 7.67485C59.6402 7.45488 59.938 7.44225 60.0169 7.67485L66.7681 25.7298C66.8731 25.947 67.0314 26.0425 67.2327 26.0395H71.3516C71.7362 25.9947 71.7496 25.7488 71.6509 25.3947L62.8802 2.85323C62.7718 2.54649 62.5944 2.43515 62.3693 2.45906H57.3618C57.1524 2.46739 56.9777 2.5729 56.8655 2.85323L48.0938 25.2963C47.9254 25.7116 47.9877 25.976 48.3835 26.0218Z" fill="white"></path><path d="M84.5087 2.40735V8.93802C84.4282 11.7325 82.3526 12.9556 80.4756 12.9711H73.9369C73.7577 12.9525 73.573 12.9437 73.6189 12.5311C73.918 10.4942 75.2389 9.86563 76.9574 9.78522H79.6372C80.575 9.77485 81.4429 8.98687 81.3995 8.02289V4.93205C81.4513 3.33207 82.7217 2.2686 84.0968 2.0605C84.3649 2.01632 84.4857 2.15205 84.5087 2.40735ZM73.9606 15.16H80.4912C83.2857 15.2405 84.5088 17.3161 84.5243 19.193V25.7318C84.5057 25.911 84.4969 26.0957 84.0844 26.0498C82.0474 25.7507 81.4189 24.4298 81.3384 22.7113V20.0315C81.3281 19.0937 80.5401 18.2258 79.5761 18.2692H76.4853C74.8853 18.2174 73.8218 16.947 73.6137 15.5719C73.5695 15.3038 73.7053 15.183 73.9606 15.16ZM86.6609 25.7407V19.21C86.7414 16.4155 88.817 15.1925 90.6939 15.177H97.2327C97.4119 15.1955 97.5966 15.2043 97.5507 15.6169C97.2516 17.6538 95.9307 18.2824 94.2122 18.3628H91.5324C90.5946 18.3732 89.7267 19.1612 89.7701 20.1251V23.216C89.7183 24.816 88.4479 25.8794 87.0728 26.0875C86.8047 26.1317 86.6839 25.996 86.6609 25.7407ZM97.1415 12.9533H90.6108C87.8163 12.8728 86.5932 10.7972 86.5777 8.92025V2.38149C86.5963 2.20231 86.6051 2.01758 87.0177 2.06354C89.0546 2.36262 89.6832 3.68347 89.7636 5.40201V8.08177C89.7739 9.01959 90.5619 9.88746 91.5259 9.8441H94.6167C96.2167 9.89589 97.2802 11.1663 97.4883 12.5414C97.5325 12.8095 97.3967 12.9303 97.1415 12.9533Z" fill="white"></path><path d="M17.6152 44.4211H11.5343V43.6881C11.6995 43.6744 11.937 43.6538 12.2467 43.6262C12.5633 43.5986 12.7801 43.5573 12.8971 43.5023C13.1036 43.4198 13.255 43.2959 13.3514 43.1307C13.4477 42.9586 13.4959 42.7383 13.4959 42.4699V37.2563H6.6098V42.3563C6.6098 42.5972 6.64765 42.8003 6.72336 42.9655C6.80595 43.1307 6.96425 43.2752 7.19826 43.3991C7.31526 43.461 7.52174 43.523 7.8177 43.5849C8.12053 43.6468 8.35799 43.6812 8.53006 43.6882V44.4212H2.44922V43.6882C2.6144 43.6744 2.85186 43.6538 3.16158 43.6263C3.47818 43.5987 3.69498 43.5574 3.81199 43.5024C4.01847 43.4198 4.16989 43.2959 4.26625 43.1307C4.36261 42.9587 4.41079 42.7384 4.41079 42.47V31.8982C4.41079 31.678 4.36605 31.4784 4.27657 31.2994C4.1871 31.1136 4.03224 30.969 3.81199 30.8658C3.62616 30.7763 3.39903 30.6972 3.13061 30.6284C2.86907 30.5595 2.64194 30.5182 2.44923 30.5045V29.7715H8.53006V30.5045C8.33734 30.5111 8.09989 30.5421 7.8177 30.5974C7.5424 30.6524 7.33592 30.704 7.19826 30.7522C6.96425 30.8348 6.80595 30.9725 6.72336 31.1652C6.64765 31.3579 6.6098 31.5678 6.6098 31.7949V36.3375H13.4959V31.8982C13.4959 31.6779 13.4512 31.4783 13.3617 31.2994C13.2722 31.1136 13.1174 30.969 12.8971 30.8658C12.7113 30.7763 12.4842 30.6971 12.2157 30.6283C11.9542 30.5595 11.7271 30.5182 11.5343 30.5045V29.7715H17.6152V30.5045C17.4225 30.5111 17.185 30.5421 16.9028 30.5974C16.6275 30.6524 16.421 30.704 16.2834 30.7522C16.0494 30.8348 15.8911 30.9724 15.8085 31.1652C15.7328 31.3579 15.6949 31.5678 15.6949 31.7949V42.3564C15.6949 42.5973 15.7328 42.8003 15.8085 42.9655C15.8911 43.1307 16.0494 43.2752 16.2834 43.3991C16.4004 43.461 16.6069 43.523 16.9028 43.5849C17.2057 43.6468 17.4431 43.6813 17.6152 43.6882L17.6152 44.4211Z" fill="white"></path><path d="M26.2851 42.0861C25.8575 42.9 25.2851 43.5483 24.5678 44.031C23.8505 44.5138 23.0264 44.7552 22.0953 44.7552C21.2746 44.7552 20.5538 44.6104 19.9331 44.3207C19.3193 44.0311 18.8124 43.6379 18.4124 43.1414C18.0123 42.6448 17.7123 42.0654 17.5123 41.4033C17.3192 40.7412 17.2227 40.0412 17.2227 39.3032C17.2227 38.6411 17.3261 37.9928 17.533 37.3583C17.7468 36.7169 18.0572 36.141 18.4641 35.6307C18.8572 35.141 19.3434 34.7479 19.9228 34.4513C20.509 34.1478 21.1642 33.9961 21.8884 33.9961C22.6332 33.9961 23.2712 34.1134 23.8023 34.3478C24.3333 34.5823 24.7644 34.903 25.0954 35.31C25.4127 35.6962 25.6472 36.1514 25.7989 36.6755C25.9575 37.1997 26.0368 37.7687 26.0368 38.3825V39.0653H19.2814C19.2814 39.7343 19.3434 40.3412 19.4676 40.8861C19.5986 41.4309 19.8021 41.9102 20.078 42.3241C20.3469 42.7241 20.6987 43.0413 21.1332 43.2758C21.5677 43.5034 22.0849 43.6172 22.685 43.6172C23.2988 43.6172 23.8264 43.4758 24.2678 43.1931C24.7161 42.9034 25.1472 42.3862 25.561 41.6413L26.2851 42.0861ZM23.9988 38.1963C23.9988 37.8101 23.9643 37.3963 23.8954 36.9549C23.8333 36.5135 23.7298 36.1445 23.585 35.8479C23.4264 35.5307 23.2091 35.272 22.9332 35.072C22.6574 34.872 22.3022 34.772 21.8677 34.772C21.1435 34.772 20.54 35.0755 20.0573 35.6824C19.5814 36.2824 19.3227 37.1204 19.2814 38.1963H23.9988Z" fill="white"></path><path d="M36.5897 44.2265C36.2664 44.3435 35.9809 44.4364 35.7333 44.5052C35.4925 44.5808 35.2174 44.6186 34.9079 44.6186C34.3713 44.6186 33.9414 44.4947 33.6181 44.2471C33.3017 43.9926 33.0987 43.6246 33.0093 43.1431H32.9474C32.5003 43.6383 32.0188 44.0167 31.5029 44.2781C30.9939 44.5395 30.3782 44.6702 29.6559 44.6702C28.8924 44.6702 28.263 44.4363 27.7677 43.9685C27.2793 43.5008 27.0352 42.8886 27.0352 42.1319C27.0352 41.7398 27.0902 41.389 27.2002 41.0795C27.3103 40.7699 27.4754 40.4913 27.6955 40.2437C27.8675 40.0373 28.0945 39.855 28.3765 39.6968C28.6585 39.5317 28.9234 39.4011 29.171 39.3047C29.4805 39.1879 30.1065 38.9712 31.0489 38.6547C31.9981 38.3383 32.6379 38.0907 32.968 37.9118V36.8903C32.968 36.8009 32.9474 36.6289 32.9061 36.3744C32.8717 36.1199 32.7926 35.8792 32.6688 35.6522C32.5312 35.3977 32.3352 35.1775 32.0807 34.9918C31.833 34.7992 31.4788 34.7029 31.0179 34.7029C30.7015 34.7029 30.4057 34.7579 30.1306 34.868C29.8623 34.9712 29.6731 35.0812 29.5631 35.1982C29.5631 35.3357 29.594 35.5387 29.6559 35.807C29.7247 36.0752 29.7591 36.3229 29.7591 36.5499C29.7591 36.7906 29.6491 37.0107 29.4289 37.2102C29.2157 37.4097 28.9165 37.5094 28.5313 37.5094C28.1873 37.5094 27.9328 37.3891 27.7677 37.1483C27.6095 36.9007 27.5304 36.6255 27.5304 36.3229C27.5304 36.0064 27.6405 35.7038 27.8606 35.4149C28.0876 35.126 28.3799 34.868 28.7376 34.641C29.0472 34.4484 29.4221 34.2867 29.8623 34.1561C30.3025 34.0185 30.7325 33.9497 31.1521 33.9497C31.7299 33.9497 32.232 33.991 32.6585 34.0735C33.0919 34.1491 33.4839 34.3176 33.8348 34.5791C34.1856 34.8336 34.4504 35.181 34.6293 35.6212C34.815 36.0546 34.9078 36.6152 34.9078 37.3031C34.9078 38.2867 34.8975 39.1603 34.8769 39.9238C34.8563 40.6805 34.8459 41.5094 34.8459 42.4105C34.8459 42.6788 34.8907 42.892 34.9801 43.0502C35.0764 43.2084 35.2208 43.3426 35.4134 43.4526C35.5166 43.5145 35.6783 43.5489 35.8984 43.5558C36.1254 43.5625 36.3558 43.5658 36.5897 43.5658V44.2265ZM32.9887 38.7786C32.404 38.9506 31.8915 39.1191 31.4513 39.2842C31.0111 39.4493 30.6018 39.6557 30.2235 39.9033C29.8795 40.1372 29.6078 40.4157 29.4083 40.739C29.2088 41.0555 29.1091 41.4338 29.1091 41.874C29.1091 42.445 29.257 42.8646 29.5528 43.1328C29.8554 43.4011 30.2372 43.5352 30.6981 43.5352C31.1865 43.5352 31.6164 43.4183 31.9878 43.1844C32.3593 42.9437 32.6723 42.6617 32.9268 42.3384L32.9887 38.7786Z" fill="white"></path><path d="M51.4177 31.0669V42.7178C51.4177 42.966 51.3692 43.1696 51.2727 43.3281C51.1762 43.4798 51.0314 43.5867 50.8384 43.6487C50.7212 43.6832 50.5764 43.7108 50.404 43.7315C50.2317 43.7453 50.0663 43.7589 49.9078 43.7727V44.4551H54.9127V43.7727C54.7196 43.7589 54.5403 43.735 54.3749 43.7005C54.2163 43.666 54.0612 43.6142 53.9096 43.5453C53.7166 43.4626 53.5718 43.3453 53.4753 43.1937C53.3856 43.042 53.3408 42.8491 53.3408 42.6147V36.7514C53.4097 36.6342 53.5064 36.4894 53.6305 36.3171C53.7545 36.1447 53.9339 35.9724 54.1683 35.8C54.4095 35.6346 54.6818 35.4968 54.9852 35.3865C55.2954 35.2693 55.6298 35.2108 55.9882 35.2108C56.4777 35.2108 56.8911 35.4071 57.2289 35.8C57.5736 36.193 57.746 36.7515 57.746 37.4754V42.7179C57.746 42.966 57.6978 43.1696 57.6013 43.3281C57.5117 43.4798 57.3702 43.5867 57.1772 43.6488C57.0531 43.6901 56.8947 43.7177 56.7017 43.7315C56.5087 43.7453 56.3327 43.7589 56.1741 43.7727V44.4551H61.179V43.7727C60.9722 43.7589 60.8035 43.7383 60.6725 43.7107C60.5484 43.6762 60.407 43.6281 60.2484 43.566C60.0485 43.4833 59.9037 43.3694 59.8141 43.2246C59.7314 43.073 59.6902 42.8764 59.6902 42.6351V37.3307C59.6902 36.2484 59.4454 35.4209 58.956 34.8487C58.4665 34.2696 57.7665 33.9804 56.8566 33.9804C56.4154 33.9804 56.0155 34.0355 55.6571 34.1458C55.3055 34.2561 54.999 34.3939 54.737 34.5593C54.4337 34.7524 54.189 34.9383 54.0028 35.1176C53.8167 35.2899 53.6098 35.4898 53.3823 35.7173H53.3408V31.0669L51.4177 31.0669ZM44.0655 31.1263V34.3007H42.1836V35.2935H44.024V42.2008C44.024 42.9867 44.1964 43.597 44.5411 44.0313C44.8926 44.4587 45.496 44.6723 46.3508 44.6723C46.9299 44.6723 47.4194 44.6068 47.8192 44.4759C48.219 44.3518 48.6428 44.1967 49.0909 44.0106V43.2556C48.953 43.3039 48.7152 43.3454 48.3774 43.3798C48.0465 43.4074 47.7948 43.421 47.6225 43.421C47.2502 43.421 46.954 43.3696 46.7334 43.2662C46.5128 43.1627 46.3471 43.011 46.2368 42.8111C46.1196 42.5974 46.0439 42.3493 46.0094 42.0667C45.9819 41.7771 45.9682 41.4185 45.9682 40.9911V35.2935H48.8737V34.3007H45.9475V31.1263L44.0655 31.1263Z" fill="white"></path><path d="M66.0811 44.7889C64.5794 44.7889 63.404 44.2906 62.5549 43.2941C61.7058 42.2977 61.2812 40.9609 61.2812 39.2838C61.2812 38.554 61.3935 37.8733 61.6181 37.2417C61.8497 36.6031 62.183 36.0242 62.618 35.5049C63.0321 35.0067 63.5514 34.6067 64.1759 34.305C64.8004 33.9962 65.4811 33.8418 66.2179 33.8418C67.2354 33.8418 68.0635 34.0874 68.7021 34.5786C69.3406 35.0628 69.6599 35.726 69.6599 36.568C69.6599 36.9189 69.5757 37.2312 69.4073 37.5049C69.2389 37.7715 68.9617 37.9049 68.5758 37.9049C68.1617 37.9049 67.8389 37.7996 67.6074 37.5891C67.3828 37.3786 67.2705 37.1435 67.2705 36.8838C67.2705 36.5681 67.3126 36.2453 67.3968 35.9154C67.481 35.5786 67.5302 35.333 67.5443 35.1786C67.418 34.9611 67.2285 34.8172 66.9759 34.7471C66.7303 34.6699 66.4636 34.6313 66.1759 34.6313C65.8391 34.6313 65.5163 34.705 65.2075 34.8524C64.9058 34.9927 64.611 35.2559 64.3233 35.6418C64.0637 35.9927 63.8532 36.4664 63.6918 37.0629C63.5304 37.6593 63.4497 38.3716 63.4497 39.1996C63.4497 40.5049 63.7374 41.5715 64.3128 42.3995C64.8953 43.2206 65.6566 43.6311 66.5969 43.6311C67.2776 43.6311 67.846 43.4662 68.3022 43.1363C68.7653 42.8065 69.1934 42.3118 69.5863 41.6522L70.26 42.0943C69.7968 42.9223 69.1863 43.5784 68.4285 44.0626C67.6706 44.5468 66.8881 44.7889 66.0811 44.7889ZM80.3605 44.3257C80.0307 44.445 79.7394 44.5398 79.4868 44.6099C79.2412 44.687 78.9605 44.7256 78.6447 44.7256C78.0974 44.7256 77.6588 44.5993 77.329 44.3467C77.0062 44.087 76.7992 43.7116 76.708 43.2204H76.6448C76.1887 43.7256 75.6975 44.1116 75.1712 44.3782C74.6519 44.6449 74.0239 44.7783 73.287 44.7783C72.5081 44.7783 71.866 44.5396 71.3608 44.0625C70.8625 43.5853 70.6134 42.9608 70.6134 42.1889C70.6134 41.7889 70.6696 41.431 70.7819 41.1152C70.8942 40.7994 71.0626 40.5152 71.2871 40.2626C71.4626 40.0521 71.6941 39.8661 71.9818 39.7047C72.2696 39.5363 72.5397 39.403 72.7924 39.3047C73.1081 39.1853 73.7467 38.9643 74.7081 38.6416C75.6765 38.3188 76.3291 38.0661 76.6659 37.8837V36.8417C76.6659 36.7504 76.6449 36.575 76.6028 36.3154C76.5677 36.0557 76.487 35.8101 76.3607 35.5785C76.2203 35.3189 76.0203 35.0943 75.7607 34.9049C75.5081 34.7084 75.1467 34.6101 74.6765 34.6101C74.3537 34.6101 74.052 34.6663 73.7713 34.7786C73.4976 34.8838 73.3046 34.9961 73.1924 35.1154C73.1924 35.2558 73.2239 35.4628 73.2871 35.7364C73.3573 36.0101 73.3924 36.2628 73.3924 36.4943C73.3924 36.7399 73.2801 36.9645 73.0556 37.168C72.838 37.3715 72.5328 37.4732 72.1398 37.4732C71.7889 37.4732 71.5293 37.3505 71.3609 37.1048C71.1995 36.8522 71.1188 36.5715 71.1188 36.2627C71.1188 35.9399 71.2311 35.6312 71.4556 35.3365C71.6872 35.0417 71.9854 34.7786 72.3503 34.547C72.6661 34.3505 73.0485 34.1856 73.4977 34.0523C73.9468 33.912 74.3853 33.8418 74.8134 33.8418C75.4029 33.8418 75.9151 33.8839 76.3502 33.9681C76.7923 34.0452 77.1923 34.2171 77.5502 34.4838C77.9081 34.7435 78.1782 35.0978 78.3607 35.547C78.5501 35.989 78.6449 36.561 78.6449 37.2627C78.6449 38.2662 78.6343 39.1574 78.6133 39.9363C78.5922 40.7082 78.5817 41.5538 78.5817 42.4731C78.5817 42.7468 78.6273 42.9643 78.7186 43.1257C78.8169 43.2871 78.9643 43.4239 79.1607 43.5362C79.2659 43.5993 79.4308 43.6344 79.6554 43.6415C79.887 43.6483 80.1221 43.6517 80.3606 43.6517L80.3605 44.3257ZM76.6869 38.768C76.0904 38.9434 75.5676 39.1153 75.1185 39.2838C74.6694 39.4522 74.2519 39.6627 73.8659 39.9153C73.5151 40.1539 73.2379 40.4381 73.0344 40.7679C72.8309 41.0907 72.7291 41.4767 72.7291 41.9258C72.7291 42.5082 72.88 42.9363 73.1817 43.2099C73.4905 43.4836 73.88 43.6205 74.3501 43.6205C74.8484 43.6205 75.2869 43.5012 75.6659 43.2626C76.0448 43.017 76.3641 42.7293 76.6237 42.3995L76.6869 38.768Z" fill="white"></path><path d="M88.7635 35.6026C88.7635 35.9536 88.6774 36.2668 88.5054 36.5421C88.3333 36.8105 88.0683 36.9447 87.7104 36.9447C87.325 36.9447 87.029 36.8449 86.8226 36.6453C86.623 36.4457 86.5232 36.2255 86.5232 35.9846C86.5232 35.8332 86.5335 35.6955 86.5542 35.5716C86.5817 35.4478 86.6058 35.3239 86.6265 35.2C86.303 35.2 85.9245 35.3307 85.4909 35.5923C85.0573 35.8538 84.689 36.2255 84.3862 36.7073V42.6331C84.3862 42.874 84.431 43.0701 84.5205 43.2215C84.6169 43.373 84.7649 43.4865 84.9644 43.5622C85.1364 43.6311 85.3567 43.6827 85.6251 43.717C85.9004 43.7514 86.1378 43.7755 86.3374 43.7894V44.4707H80.9691V43.7894C81.1274 43.7757 81.2891 43.7619 81.4543 43.748C81.6264 43.7343 81.7743 43.7068 81.8982 43.6655C82.0909 43.6036 82.232 43.4969 82.3215 43.3455C82.4178 43.1871 82.4659 42.9841 82.4659 42.7364V36.4492C82.4659 36.2358 82.4143 36.0259 82.3111 35.8194C82.2147 35.613 82.077 35.4478 81.8982 35.3239C81.7674 35.2413 81.6125 35.1828 81.4336 35.1483C81.2546 35.107 81.0619 35.0795 80.8555 35.0658V34.3948L84.2417 34.1676L84.3861 34.3123V35.7473H84.4377C84.8644 35.1898 85.3393 34.7665 85.8623 34.4774C86.3854 34.1884 86.8637 34.0438 87.2973 34.0438C87.7309 34.0438 88.0819 34.185 88.3503 34.4671C88.6257 34.7493 88.7635 35.1277 88.7635 35.6026ZM97.9041 42.0756C97.4774 42.8877 96.9061 43.5347 96.1904 44.0165C95.4746 44.4982 94.6521 44.7391 93.723 44.7391C92.904 44.7391 92.1848 44.5946 91.5653 44.3055C90.9528 44.0165 90.4469 43.6242 90.0477 43.1286C89.6486 42.6331 89.3492 42.0549 89.1496 41.3942C88.9569 40.7335 88.8605 40.0349 88.8605 39.2985C88.8605 38.6378 88.9637 37.9908 89.1702 37.3576C89.3836 36.7176 89.6933 36.1429 90.0994 35.6336C90.4917 35.1449 90.9769 34.7526 91.555 34.4567C92.14 34.1539 92.7939 34.0024 93.5165 34.0024C94.2598 34.0024 94.8965 34.1195 95.4264 34.3535C95.9564 34.5875 96.3865 34.9075 96.7169 35.3136C97.0335 35.699 97.2675 36.1532 97.4189 36.6763C97.5772 37.1994 97.6564 37.7672 97.6564 38.3797V39.0611H90.9149C90.9149 39.7287 90.9769 40.3343 91.1007 40.878C91.2315 41.4218 91.4345 41.9001 91.7098 42.3131C91.9782 42.7122 92.3293 43.0288 92.7628 43.2628C93.1964 43.49 93.7126 43.6035 94.3114 43.6035C94.924 43.6035 95.4505 43.4624 95.891 43.1803C96.3383 42.8912 96.7685 42.375 97.1814 41.6317L97.9041 42.0756ZM95.6226 38.1939C95.6226 37.8085 95.5881 37.3955 95.5193 36.955C95.4573 36.5145 95.3541 36.1463 95.2096 35.8504C95.0513 35.5338 94.8345 35.2757 94.5592 35.0761C94.2839 34.8765 93.9294 34.7767 93.4958 34.7767C92.7732 34.7767 92.171 35.0795 91.6892 35.6852C91.2143 36.284 90.9562 37.1202 90.9149 38.1939H95.6226Z" fill="white"></path><path d="M38.7292 31.7734V42.7109C38.7292 42.9565 38.6813 43.1579 38.5858 43.3148C38.4903 43.4649 38.347 43.5706 38.156 43.6319C38.04 43.6661 37.8936 43.6932 37.7162 43.7137C37.5389 43.7274 37.3717 43.7409 37.2148 43.7546V44.43H42.1361V43.7546C41.9519 43.741 41.7851 43.7172 41.635 43.6831C41.4918 43.6489 41.345 43.5977 41.1949 43.5294C40.9971 43.4476 40.8538 43.3317 40.7651 43.1817C40.6764 43.0248 40.6322 42.8271 40.6322 42.5883V31.7734L38.7292 31.7734Z" fill="white"></path><path d="M53.197 29.5889L49.4226 29.8268V30.4885C49.6156 30.5023 49.8673 30.5298 50.1775 30.5712C50.4946 30.6057 50.7151 30.6678 50.8392 30.7574C51.0116 30.8746 51.1497 31.0506 51.2531 31.2849C51.3634 31.5193 51.4185 31.7535 51.4185 31.9878V33.6587H53.3417V29.7441L53.197 29.5889ZM44.0664 32.2673V33.6587H45.9484V32.2673H44.0664Z" fill="white"></path><path d="M40.4872 29.5845L36.6914 29.8198V30.4748C36.8892 30.4885 37.1518 30.5293 37.4792 30.5975C37.8067 30.6657 38.0319 30.7408 38.1547 30.8226C38.3252 30.9454 38.4615 31.1159 38.5638 31.3342C38.6729 31.5457 38.7276 31.774 38.7276 32.0195V41.8757H40.6306V29.7381L40.4872 29.5845Z" fill="white"></path><path d="M83.513 13.6999C84.1753 13.2138 84.7694 12.6888 85.1634 12.0495C85.4342 11.7051 85.7051 11.7098 85.9759 12.0495C86.39 12.6685 86.8798 13.228 87.5624 13.636C88.0277 13.9708 87.94 14.2609 87.5624 14.5277C86.9523 14.9651 86.4469 15.4691 86.0487 16.0414C85.7451 16.4063 85.4415 16.4392 85.1379 16.0414C84.6817 15.4618 84.2077 14.8935 83.543 14.4466C83.2619 14.2511 83.116 14.0291 83.513 13.6999Z" fill="white"></path></svg>