<svg xmlns="http://www.w3.org/2000/svg" width="164" height="49" viewBox="0 0 164 49" fill="none"><g clip-path="url(#clip0_3615_2435)"><path d="M77.8409 12.6421H85.1853V36.3451H79.7429V20.4055L72.7807 36.3451L65.4532 20.3855V36.3451H60.375V12.6421H67.6339L72.8672 24.9105L77.8409 12.6421Z" fill="white"></path><path d="M87.8906 12.6421V36.3451H101.567V32.3267H93.1926V26.2964H101.221V22.24H93.1926V16.8019H101.567V12.6421H87.8906Z" fill="white"></path><path d="M121.969 24.4977C121.969 33.3209 131.177 40.3813 140.88 35.6589V30.5807C133.414 35.8109 126.915 30.5687 127.022 24.7003C127.094 20.8002 129.715 17.091 134.785 16.8018C137.278 16.6603 138.967 17.28 140.88 19.1113V13.8305C133.869 9.67593 121.969 14.2485 121.969 24.4977Z" fill="white"></path><path d="M143.117 36.3451H148.158V12.8701H143.117V36.3451Z" fill="white"></path><path d="M154.481 23.6344L162.099 12.9219H156.211L148.664 23.6144L157.426 36.3452H163.207L154.481 23.6344Z" fill="white"></path><path d="M103.926 12.6416V36.3447H109.246V23.6103L118.041 36.3447H123.712L116.75 26.3919C119.977 25.1716 121.024 22.4661 121.024 19.7618C121.024 17.0596 118.755 12.6416 113.26 12.6416H103.926ZM109.246 16.5859H111.569C115.495 16.5859 115.705 19.1528 115.705 20.1112C115.705 21.9425 114.151 23.502 112.145 23.502H109.246V16.5859Z" fill="white"></path><path d="M12.6406 12.6426C12.6406 6.09616 17.9478 0.790039 24.4931 0.790039C31.0406 0.790039 36.3457 6.09616 36.3457 12.6426H12.6406ZM12.6406 36.3466C12.6406 29.8013 17.9478 24.4941 24.4931 24.4941C17.9478 24.4941 12.6406 19.189 12.6406 12.6426C6.09522 12.6426 0.789062 17.9487 0.789062 24.4941C0.789062 31.0416 6.09522 36.3466 12.6406 36.3466ZM12.6406 36.3466C12.6406 42.8941 17.9478 48.1992 24.4931 48.1992C31.0406 48.1992 36.3457 42.8941 36.3457 36.3466H12.6406ZM24.4931 24.4941C31.0406 24.4941 36.3457 29.8013 36.3457 36.3466C42.8921 36.3466 48.1993 31.0416 48.1993 24.4941C48.1993 17.9487 42.8921 12.6426 36.3457 12.6426C36.3457 19.189 31.0406 24.4941 24.4931 24.4941Z" fill="white"></path></g><defs><clipPath id="clip0_3615_2435"><rect width="164" height="48.9895" fill="white"></rect></clipPath></defs></svg>