<?xml version="1.0" encoding="UTF-8"?>
<svg xmlns="http://www.w3.org/2000/svg" xmlns:xlink="http://www.w3.org/1999/xlink" width="20px" height="20px" viewBox="0 0 20 20" version="1.1">
<defs>
<linearGradient id="linear0" gradientUnits="userSpaceOnUse" x1="133.238998" y1="162.673004" x2="107.794998" y2="196.863998" gradientTransform="matrix(0.0781251,0,0,0.0781251,0,0)">
<stop offset="0" style="stop-color:rgb(0%,64.705882%,90.196078%);stop-opacity:1;"/>
<stop offset="1" style="stop-color:rgb(0%,23.921569%,94.901961%);stop-opacity:1;"/>
</linearGradient>
<linearGradient id="linear1" gradientUnits="userSpaceOnUse" x1="102.491997" y1="162.526993" x2="48.4683" y2="248.384003" gradientTransform="matrix(0.0781251,0,0,0.0781251,0,0)">
<stop offset="0" style="stop-color:rgb(100%,52.156863%,15.686275%);stop-opacity:1;"/>
<stop offset="1" style="stop-color:rgb(94.901961%,79.215686%,0%);stop-opacity:1;"/>
</linearGradient>
<linearGradient id="linear2" gradientUnits="userSpaceOnUse" x1="102.491997" y1="162.526993" x2="48.4683" y2="248.384003" gradientTransform="matrix(0.0781251,0,0,0.0781251,0,0)">
<stop offset="0" style="stop-color:rgb(100%,52.156863%,15.686275%);stop-opacity:1;"/>
<stop offset="1" style="stop-color:rgb(94.901961%,79.215686%,0%);stop-opacity:1;"/>
</linearGradient>
<radialGradient id="radial0" gradientUnits="userSpaceOnUse" cx="0" cy="0" fx="0" fy="0" r="1" gradientTransform="matrix(-6.079248,9.141693,-9.141693,-6.079248,15.224922,3.077641)">
<stop offset="0" style="stop-color:rgb(29.411765%,80%,100%);stop-opacity:1;"/>
<stop offset="1" style="stop-color:rgb(0%,22.352941%,88.627451%);stop-opacity:1;"/>
</radialGradient>
<linearGradient id="linear3" gradientUnits="userSpaceOnUse" x1="139.897995" y1="209.666" x2="129.268997" y2="230.791" gradientTransform="matrix(0.0781251,0,0,0.0781251,0,0)">
<stop offset="0" style="stop-color:rgb(100%,52.156863%,15.686275%);stop-opacity:1;"/>
<stop offset="1" style="stop-color:rgb(94.901961%,79.215686%,0%);stop-opacity:1;"/>
</linearGradient>
<radialGradient id="radial1" gradientUnits="userSpaceOnUse" cx="0" cy="0" fx="0" fy="0" r="1" gradientTransform="matrix(-0.835726,1.049034,-1.108776,-0.88332,16.562656,11.00836)">
<stop offset="0" style="stop-color:rgb(29.411765%,80%,100%);stop-opacity:1;"/>
<stop offset="1" style="stop-color:rgb(0%,22.352941%,88.627451%);stop-opacity:1;"/>
</radialGradient>
<radialGradient id="radial2" gradientUnits="userSpaceOnUse" cx="0" cy="0" fx="0" fy="0" r="1" gradientTransform="matrix(-0.835726,1.049034,-1.108776,-0.88332,6.717234,4.713937)">
<stop offset="0" style="stop-color:rgb(29.411765%,80%,100%);stop-opacity:1;"/>
<stop offset="1" style="stop-color:rgb(0%,22.352941%,88.627451%);stop-opacity:1;"/>
</radialGradient>
</defs>
<g id="surface1">
<path style=" stroke:none;fill-rule:nonzero;fill:url(#linear0);" d="M 15.820312 13.871094 C 16.175781 14.433594 16.285156 14.886719 16.09375 15.164062 C 15.496094 16.019531 12.296875 14.824219 8.941406 12.496094 C 5.589844 10.164062 3.351562 7.582031 3.945312 6.726562 C 4.132812 6.457031 4.574219 6.394531 5.195312 6.515625 C 3.960938 6.207031 3.042969 6.277344 2.683594 6.792969 C 1.855469 7.984375 4.273438 11.089844 8.078125 13.738281 C 11.886719 16.382812 15.644531 17.5625 16.46875 16.375 C 16.835938 15.847656 16.566406 14.945312 15.820312 13.871094 Z M 15.820312 13.871094 "/>
<path style=" stroke:none;fill-rule:nonzero;fill:url(#linear1);" d="M 3.902344 13.527344 C 4.210938 13.511719 5.203125 13.351562 6.507812 12.996094 C 6.136719 12.703125 5.785156 12.410156 5.449219 12.109375 C 4.988281 12.636719 4.476562 13.121094 3.902344 13.527344 Z M 3.902344 13.527344 "/>
<path style=" stroke:none;fill-rule:nonzero;fill:url(#linear2);" d="M 3.082031 19.335938 C 4.210938 18.65625 6.660156 17.308594 9.496094 15.058594 C 9.171875 14.863281 8.839844 14.660156 8.515625 14.445312 C 7.289062 15.664062 5.582031 17.246094 3.082031 19.335938 Z M 3.082031 19.335938 "/>
<path style=" stroke:none;fill-rule:nonzero;fill:url(#radial0);" d="M 11.710938 10.945312 C 11.289062 11.398438 10.820312 11.984375 10.058594 12.828125 C 10.46875 13.089844 10.878906 13.335938 11.277344 13.5625 C 13.355469 11.714844 15.539062 9.394531 17.5 6.523438 C 15.945312 7.351562 10.199219 10.414062 8.246094 10.964844 C 9.246094 10.210938 16.160156 2.519531 14.976562 1.777344 C 13.671875 2.726562 11.53125 4.125 8.84375 5.292969 C 8.652344 6.109375 7.996094 8.285156 6.738281 10.34375 C 7.429688 10.953125 8.214844 11.570312 9.066406 12.164062 C 9.941406 11.832031 10.847656 11.425781 11.710938 10.945312 Z M 11.710938 10.945312 "/>
<path style=" stroke:none;fill-rule:nonzero;fill:url(#linear3);" d="M 10.621094 17.046875 C 10.847656 17.269531 11.171875 17.277344 11.453125 17.355469 C 11.460938 17.355469 11.472656 17.355469 11.476562 17.367188 C 11.167969 17.425781 10.769531 17.480469 10.566406 17.746094 C 10.402344 17.960938 10.355469 18.277344 10.308594 18.535156 C 10.292969 18.535156 10.296875 18.523438 10.292969 18.511719 C 10.230469 18.257812 10.210938 17.980469 10.046875 17.757812 C 9.847656 17.484375 9.441406 17.425781 9.128906 17.367188 C 9.128906 17.359375 9.140625 17.359375 9.144531 17.355469 C 9.386719 17.289062 9.617188 17.28125 9.847656 17.148438 C 10.179688 16.949219 10.226562 16.535156 10.300781 16.191406 L 10.390625 16.582031 C 10.433594 16.742188 10.503906 16.925781 10.621094 17.046875 Z M 10.621094 17.046875 "/>
<path style=" stroke:none;fill-rule:nonzero;fill:url(#radial1);" d="M 16.339844 11.273438 C 16.480469 11.414062 16.683594 11.417969 16.863281 11.46875 C 16.867188 11.46875 16.875 11.46875 16.875 11.476562 C 16.679688 11.511719 16.429688 11.550781 16.300781 11.714844 C 16.199219 11.847656 16.171875 12.050781 16.140625 12.210938 C 16.132812 12.210938 16.132812 12.203125 16.132812 12.199219 C 16.089844 12.035156 16.078125 11.863281 15.976562 11.722656 C 15.847656 11.550781 15.59375 11.511719 15.394531 11.476562 C 15.394531 11.472656 15.402344 11.472656 15.40625 11.46875 C 15.558594 11.425781 15.707031 11.421875 15.847656 11.335938 C 16.058594 11.214844 16.085938 10.949219 16.136719 10.730469 L 16.191406 10.980469 C 16.21875 11.082031 16.261719 11.195312 16.339844 11.273438 Z M 16.339844 11.273438 "/>
<path style=" stroke:none;fill-rule:nonzero;fill:url(#radial2);" d="M 6.492188 4.980469 C 6.632812 5.117188 6.839844 5.125 7.015625 5.175781 C 7.023438 5.175781 7.027344 5.175781 7.027344 5.179688 C 6.835938 5.21875 6.585938 5.253906 6.457031 5.421875 C 6.355469 5.554688 6.324219 5.753906 6.292969 5.917969 C 6.285156 5.914062 6.289062 5.910156 6.285156 5.902344 C 6.246094 5.742188 6.230469 5.566406 6.128906 5.425781 C 6.003906 5.253906 5.746094 5.21875 5.550781 5.179688 C 5.550781 5.175781 5.558594 5.175781 5.5625 5.175781 C 5.714844 5.132812 5.859375 5.128906 6.003906 5.042969 C 6.214844 4.917969 6.242188 4.65625 6.289062 4.4375 L 6.347656 4.683594 C 6.375 4.789062 6.414062 4.902344 6.492188 4.976562 Z M 6.492188 4.980469 "/>
<path style=" stroke:none;fill-rule:nonzero;fill:rgb(45.882353%,79.607844%,100%);fill-opacity:1;" d="M 8.246094 10.964844 C 10.242188 9.082031 13.363281 4.148438 14.644531 2.007812 C 15.066406 1.734375 15.566406 1.3125 16.375 0.675781 C 13.675781 6.890625 9.625 9.910156 8.246094 10.964844 Z M 8.246094 10.964844 "/>
</g>
</svg>
