<svg xmlns="http://www.w3.org/2000/svg" width="16.715" height="13.134" viewBox="0 0 16.715 13.134"><g id="black-back-closed-envelope-shape" transform="translate(0 -59.013)"><g id="Group_3228" data-name="Group 3228" transform="translate(0 59.013)"><path id="Path_9164" data-name="Path 9164" d="M31.654,328.631a1.429,1.429,0,0,0,.978-.369L27.9,323.526l-.328.236q-.532.392-.863.611a5.314,5.314,0,0,1-.881.448,2.686,2.686,0,0,1-1.026.228H24.78a2.686,2.686,0,0,1-1.026-.228,5.3,5.3,0,0,1-.881-.448q-.331-.219-.863-.611l-.327-.237-4.737,4.737a1.429,1.429,0,0,0,.978.369Z" transform="translate(-16.432 -315.498)" fill="#242f65"></path><path id="Path_9165" data-name="Path 9165" d="M.942,199.367A4.945,4.945,0,0,1,0,198.555v7.205l4.174-4.174Q2.921,200.712.942,199.367Z" transform="translate(0 -194.32)" fill="#242f65"></path><path id="Path_9166" data-name="Path 9166" d="M416.549,199.367q-1.906,1.29-3.24,2.221l4.172,4.173v-7.205A5.147,5.147,0,0,1,416.549,199.367Z" transform="translate(-400.766 -194.32)" fill="#242f65"></path><path id="Path_9167" data-name="Path 9167" d="M15.229,59.013H1.5A1.332,1.332,0,0,0,.393,59.5a1.882,1.882,0,0,0-.387,1.213,2.18,2.18,0,0,0,.513,1.273A4.628,4.628,0,0,0,1.61,63.061q.317.224,1.912,1.329c.574.4,1.073.745,1.5,1.044.366.255.681.475.941.659l.139.1.257.185q.3.219.5.355t.485.3a2.83,2.83,0,0,0,.536.252,1.484,1.484,0,0,0,.466.084h.019a1.485,1.485,0,0,0,.466-.084,2.824,2.824,0,0,0,.536-.252q.284-.168.485-.3t.5-.355l.257-.185.139-.1.944-.656,3.421-2.376a4.437,4.437,0,0,0,1.138-1.147,2.468,2.468,0,0,0,.457-1.408,1.5,1.5,0,0,0-1.493-1.492Z" transform="translate(-0.006 -59.013)" fill="#242f65"></path></g></g></svg>