<svg xmlns="http://www.w3.org/2000/svg" width="100" height="46" viewBox="0 0 100 46" fill="none"><g clip-path="url(#clip0_3615_2401)"><path d="M25.2695 10.4656L27.0655 14.8008L31.4008 16.5967L35.7361 6.13027L25.2695 10.4656Z" fill="#68C431"></path><path d="M6.13281 6.13027L10.4683 16.5967L14.8037 14.8008L16.5995 10.4656L6.13281 6.13027Z" fill="#F8A80E"></path><path d="M35.7366 18.392L31.4013 16.5962L29.6055 20.9316L31.4013 25.2671L35.7366 23.4712L41.8681 20.9316L35.7366 18.392Z" fill="#F8E907"></path><path d="M33.1967 29.6026L31.4008 25.2672L29.605 20.9317L27.0655 27.0629L25.2695 31.3983L29.605 33.194L35.7361 35.7339L33.1967 29.6026Z" fill="#50AEE5"></path><path d="M10.4666 16.5962L6.13114 18.392L0 20.9316L6.13114 23.4712L10.4666 25.2671L12.2624 20.9316L10.4666 16.5962Z" fill="#F8E907"></path><path d="M10.4648 16.5967L12.2607 20.9321L14.8002 14.8009L10.4648 16.5967Z" fill="#FACC09"></path><path d="M27.0664 14.8009L29.6058 20.9321L31.4017 16.5967L27.0664 14.8009Z" fill="#B7DD19"></path><path d="M14.8037 27.0629L12.2641 20.9317L10.4683 25.2672L8.67238 29.6026L6.13281 35.7339L12.2641 33.194L16.5995 31.3983L14.8037 27.0629Z" fill="#50AEE5"></path><path d="M16.5971 31.3984L20.9326 20.9319L25.2678 31.3984L27.0638 27.063L29.6033 20.9319L27.0638 14.8006L25.2678 10.4654L20.9326 -0.00143433L16.5971 10.4654L14.8013 14.8006L12.2617 20.9319L14.8013 27.063L16.5971 31.3984Z" fill="#3C85CE"></path><path d="M52.7625 13.3749L50.9678 8.15026H50.9277L49.0732 13.3749H52.7625ZM52.583 4.64015L57.9076 18.8789H54.6571L53.5802 15.7081H48.2559L47.139 18.8789H43.9883L49.3726 4.64015H52.583Z" fill="#5A5758"></path><path d="M61.3359 4.64015V18.8789H58.5039V4.64015H61.3359Z" fill="#5A5758"></path><path d="M65.8746 4.64015V18.8789H63.043V4.64015H65.8746Z" fill="#5A5758"></path><path d="M70.4094 8.56909V18.8789H67.5781V8.56909H70.4094ZM67.5781 6.97355V4.64015H70.4094V6.97355H67.5781Z" fill="#5A5758"></path><path d="M78.5209 13.8338C78.4007 13.9402 78.2512 14.0232 78.0717 14.0831C77.8921 14.1429 77.6998 14.1929 77.4933 14.2328C77.2872 14.2726 77.0707 14.3057 76.8452 14.3323C76.6191 14.3592 76.3932 14.3921 76.1671 14.4321C75.9544 14.4721 75.7452 14.5252 75.539 14.5917C75.3329 14.6583 75.1534 14.748 75.0004 14.8606C74.8478 14.9739 74.7245 15.117 74.6316 15.2897C74.5387 15.4624 74.4921 15.6819 74.4921 15.9476C74.4921 16.2003 74.5387 16.4131 74.6316 16.5857C74.7245 16.7589 74.8516 16.895 75.0107 16.9945C75.1703 17.0943 75.3564 17.164 75.5691 17.204C75.7814 17.2439 76.001 17.2637 76.2268 17.2637C76.7858 17.2637 77.2174 17.1709 77.5233 16.9845C77.8289 16.7985 78.0551 16.5757 78.2011 16.3166C78.3479 16.0574 78.437 15.7952 78.4705 15.5289C78.5039 15.2631 78.5209 15.0503 78.5209 14.8909V13.8338ZM71.9795 11.7398C72.0196 11.0753 72.1857 10.5232 72.4781 10.0847C72.7702 9.64585 73.1428 9.29401 73.5948 9.0278C74.0467 8.76193 74.555 8.57272 75.1206 8.45947C75.6854 8.34691 76.2534 8.28993 76.8255 8.28993C77.3438 8.28993 77.8693 8.32688 78.4007 8.39973C78.9321 8.47293 79.4176 8.61588 79.8568 8.82823C80.2953 9.04127 80.654 9.33682 80.9337 9.71594C81.213 10.0947 81.3522 10.5968 81.3522 11.2213V16.5857C81.3522 17.0511 81.3788 17.4968 81.4316 17.9218C81.4848 18.3477 81.5783 18.6664 81.7113 18.8791H78.8392C78.7864 18.7195 78.7432 18.5569 78.7097 18.3907C78.6766 18.2244 78.6531 18.055 78.6396 17.882C78.188 18.3477 77.6563 18.6733 77.0444 18.8591C76.4333 19.0451 75.8083 19.1382 75.1703 19.1382C74.6782 19.1382 74.2197 19.0783 73.7943 18.9588C73.3689 18.839 72.9964 18.6533 72.6777 18.4006C72.3583 18.1481 72.109 17.8291 71.9298 17.4433C71.7506 17.0579 71.6602 16.5992 71.6602 16.0672C71.6602 15.4825 71.763 15.0003 71.9695 14.6214C72.1753 14.2428 72.4412 13.9402 72.7675 13.7143C73.0927 13.4883 73.4653 13.3186 73.8841 13.2057C74.3029 13.093 74.7245 13.0031 75.1502 12.9365C75.5753 12.87 75.9945 12.8167 76.4067 12.7768C76.8186 12.737 77.1846 12.6773 77.5033 12.5974C77.8224 12.5177 78.0751 12.4013 78.2612 12.2484C78.4477 12.0957 78.5336 11.873 78.5209 11.5805C78.5209 11.2748 78.4705 11.0321 78.3707 10.8526C78.2712 10.6731 78.1383 10.5336 77.9722 10.4338C77.8054 10.334 77.6131 10.2677 77.3939 10.2342C77.1743 10.2014 76.9381 10.1845 76.686 10.1845C76.127 10.1845 75.6885 10.3043 75.3698 10.5436C75.0508 10.7829 74.8647 11.1817 74.8115 11.7398H71.9795Z" fill="#5A5758"></path><path d="M85.7078 8.56909V10.0048H85.7679C86.1266 9.40674 86.5917 8.97134 87.1635 8.69857C87.7349 8.42614 88.3202 8.28975 88.9185 8.28975C89.6761 8.28975 90.2976 8.39299 90.7824 8.59878C91.2682 8.80526 91.6504 9.0908 91.9294 9.45646C92.2084 9.82211 92.4045 10.2675 92.5177 10.7923C92.6306 11.3178 92.6869 11.8993 92.6869 12.5374V18.8789H89.8556V13.0558C89.8556 12.2053 89.7223 11.5702 89.4565 11.1514C89.1906 10.7326 88.719 10.523 88.0412 10.523C87.2695 10.523 86.7115 10.7526 86.3659 11.2113C86.0199 11.67 85.8469 12.4246 85.8469 13.4746V18.8789H83.0156V8.56909H85.7078Z" fill="#5A5758"></path><path d="M99.8857 8.56937V10.4636H97.8119V15.5689C97.8119 16.0475 97.8917 16.3665 98.0512 16.5259C98.2107 16.6856 98.5298 16.7653 99.0087 16.7653C99.1675 16.7653 99.3205 16.759 99.4672 16.7455C99.6133 16.7323 99.7531 16.7123 99.8857 16.6856V18.8792C99.6467 18.9191 99.3805 18.9455 99.0881 18.9589C98.7953 18.9721 98.5097 18.979 98.2308 18.979C97.7922 18.979 97.3762 18.9489 96.9843 18.8892C96.5921 18.8293 96.2464 18.7133 95.9478 18.5401C95.6484 18.3675 95.4115 18.1215 95.2393 17.8022C95.0663 17.4834 94.9799 17.0646 94.9799 16.5461V10.4636H93.2656V8.56937H94.9799V5.47842H97.8119V8.56937H99.8857Z" fill="#5A5758"></path><path d="M53.182 21.4877V22.8026H45.9805V26.5338H52.6935V27.8488H45.9805V31.9085H53.2362V33.2231H44.2617V21.4877H53.182Z" fill="#5A5758"></path><path d="M56.5099 24.726V26.0733H56.5462C57.1853 25.0438 58.1987 24.5282 59.5864 24.5282C60.2013 24.5282 60.714 24.6049 61.1239 24.7585C61.5337 24.9121 61.8659 25.1259 62.1193 25.3996C62.3721 25.6734 62.5506 25.9996 62.6528 26.3774C62.7553 26.7557 62.8068 27.1747 62.8068 27.6351V33.2231H61.2686V27.4705C61.2686 26.9447 61.0997 26.528 60.7624 26.2217C60.4244 25.9148 59.9603 25.7612 59.3692 25.7612C58.8986 25.7612 58.4915 25.827 58.1476 25.9585C57.804 26.0901 57.5168 26.2763 57.2882 26.5173C57.0586 26.7585 56.8866 27.041 56.7727 27.3636C56.658 27.6872 56.6004 28.0404 56.6004 28.4236V33.2231H55.0625V24.726H56.5099Z" fill="#5A5758"></path><path d="M71.3754 27.2236C71.2365 26.9277 71.0498 26.6734 70.8143 26.4598C70.5791 26.246 70.3015 26.0761 69.9822 25.9499C69.6621 25.8241 69.3095 25.761 68.9239 25.761C68.5254 25.761 68.1663 25.8241 67.8469 25.9499C67.5276 26.0761 67.2527 26.2487 67.0238 26.4677C66.7945 26.687 66.6136 26.9418 66.4807 27.2323C66.3484 27.5227 66.2697 27.8319 66.2459 28.1608H71.6195C71.5953 27.8319 71.5142 27.5198 71.3754 27.2236ZM71.7462 32.6808C71.0463 33.1629 70.1658 33.4038 69.1048 33.4038C68.3562 33.4038 67.7078 33.2944 67.1595 33.0754C66.6101 32.8561 66.1492 32.5492 65.7753 32.1546C65.4013 31.7604 65.1209 31.2894 64.9338 30.7411C64.7467 30.1937 64.6414 29.5963 64.6172 28.9496C64.6172 28.3033 64.7256 27.7118 64.9428 27.1745C65.1596 26.6377 65.4645 26.1721 65.8564 25.7773C66.2486 25.3827 66.7127 25.0762 67.2496 24.8568C67.7865 24.6379 68.3745 24.528 69.0136 24.528C69.8465 24.528 70.537 24.6841 71.0857 24.9968C71.6343 25.3089 72.0749 25.7062 72.4071 26.1883C72.7385 26.6708 72.9674 27.1966 73.0942 27.7665C73.2209 28.3359 73.272 28.8785 73.2482 29.3937H66.2459C66.2334 29.7662 66.2818 30.1195 66.3905 30.4537C66.499 30.7878 66.674 31.0837 66.915 31.3415C67.1564 31.5988 67.464 31.8041 67.8376 31.9577C68.2116 32.1113 68.6525 32.1877 69.1583 32.1877C69.8102 32.1877 70.344 32.0509 70.7601 31.7767C71.1761 31.503 71.4506 31.0861 71.5836 30.5273H73.1035C72.8977 31.4809 72.4457 32.1987 71.7462 32.6808Z" fill="#5A5758"></path><path d="M76.2333 24.726V26.5173H76.2692C76.6428 25.827 77.1013 25.3174 77.6441 24.9885C78.1872 24.6598 78.875 24.5066 79.7068 24.5282V26.008C79.0922 26.008 78.567 26.0848 78.133 26.2374C77.699 26.3911 77.3482 26.6158 77.0833 26.9121C76.8178 27.2078 76.6245 27.5666 76.5043 27.9884C76.3838 28.4103 76.323 28.895 76.323 29.443V33.2231H74.7852V24.726H76.2333Z" fill="#5A5758"></path><path d="M85.4154 31.8014C85.7714 31.6098 86.058 31.3574 86.2748 31.0453C86.492 30.7332 86.6515 30.3799 86.7544 29.9853C86.8566 29.5906 86.9084 29.1958 86.9084 28.8017C86.9084 28.4295 86.8601 28.0622 86.7641 27.7004C86.6667 27.3392 86.5131 27.013 86.3021 26.7225C86.0908 26.4323 85.8163 26.1993 85.4793 26.0236C85.1409 25.8488 84.7311 25.761 84.2484 25.761C83.7539 25.761 83.332 25.8461 82.9819 26.0158C82.6318 26.1857 82.3459 26.413 82.1221 26.6982C81.8991 26.9829 81.7365 27.3118 81.6339 27.6839C81.531 28.057 81.4806 28.4455 81.4806 28.8506C81.4806 29.2348 81.522 29.6179 81.6066 30.0016C81.6909 30.3852 81.8359 30.7332 82.041 31.0453C82.2461 31.3574 82.5175 31.6098 82.8552 31.8014C83.1928 31.993 83.6151 32.0893 84.122 32.0893C84.6285 32.0893 85.0598 31.993 85.4154 31.8014ZM87.3787 35.6228C86.6791 36.3129 85.5811 36.6582 84.0861 36.6582C83.6514 36.6582 83.2084 36.6141 82.7557 36.5267C82.3034 36.4391 81.8932 36.2967 81.5255 36.0996C81.1571 35.9024 80.8525 35.6449 80.6115 35.3269C80.3702 35.0092 80.2372 34.6208 80.2134 34.1597H81.7516C81.7634 34.4121 81.8511 34.6259 82.0137 34.8014C82.177 34.9763 82.3759 35.1186 82.611 35.2284C82.8462 35.3375 83.1024 35.4174 83.38 35.4663C83.6576 35.5157 83.9224 35.5405 84.1759 35.5405C84.6827 35.5405 85.1109 35.4612 85.4606 35.3023C85.8104 35.1431 86.1001 34.9242 86.3294 34.6449C86.5579 34.3653 86.724 34.0284 86.8269 33.6343C86.9288 33.2397 86.9806 32.807 86.9806 32.3356V31.7767H86.9443C86.6791 32.3029 86.2776 32.6887 85.7414 32.9355C85.2044 33.1823 84.6344 33.3051 84.0312 33.3051C83.332 33.3051 82.7229 33.1903 82.2043 32.9604C81.6853 32.7301 81.251 32.4203 80.9012 32.0315C80.5511 31.6426 80.2887 31.1878 80.1143 30.6673C79.9389 30.1467 79.8516 29.5963 79.8516 29.0154C79.8516 28.5116 79.9237 27.9938 80.0687 27.4619C80.2134 26.9309 80.4544 26.4487 80.7928 26.0158C81.1298 25.5831 81.5766 25.2267 82.1318 24.9473C82.6863 24.6678 83.3682 24.528 84.1759 24.528C84.7666 24.528 85.3098 24.6463 85.8045 24.8816C86.299 25.1172 86.6854 25.471 86.9626 25.9416H86.9806V24.7258H88.428V32.4999C88.428 33.8912 88.0782 34.9322 87.3787 35.6228Z" fill="#5A5758"></path><path d="M94.4166 34.3575C94.2357 34.7734 94.0579 35.124 93.8835 35.4091C93.7081 35.6944 93.5151 35.9271 93.3041 36.1081C93.0932 36.2885 92.8573 36.4202 92.5987 36.5023C92.3391 36.5844 92.0404 36.626 91.7024 36.626C91.5214 36.626 91.3405 36.6142 91.1599 36.5924C90.979 36.5707 90.8039 36.5324 90.6354 36.4775V35.1953C90.7673 35.2504 90.9217 35.2969 91.0967 35.3352C91.2711 35.3739 91.4192 35.3925 91.5401 35.3925C91.8536 35.3925 92.116 35.3245 92.327 35.1875C92.5376 35.0504 92.6975 34.8556 92.8062 34.6039L93.4398 33.174L89.7305 24.7259H91.4679L94.1994 31.6779H94.2357L96.8598 24.7259H98.4878L94.4166 34.3575Z" fill="#5A5758"></path><path d="M46.2409 42.3926C46.5368 42.3926 46.7606 42.3169 46.9122 42.166C47.0641 42.0144 47.1397 41.8194 47.1397 41.5808C47.1397 41.4572 47.1217 41.3539 47.0858 41.2698C47.0496 41.1861 47.0012 41.1184 46.9408 41.0684C46.88 41.0177 46.81 40.9814 46.7305 40.959C46.6508 40.9369 46.5652 40.9254 46.4743 40.9254H45.3304L45.0176 42.3926H46.2409ZM46.4743 40.4772C46.8649 40.4772 47.1639 40.5691 47.3703 40.7518C47.5768 40.9351 47.6808 41.2109 47.6808 41.5808C47.6808 41.7036 47.6559 41.839 47.6062 41.9869C47.5571 42.1339 47.4729 42.2713 47.3531 42.3981C47.234 42.5252 47.0744 42.6305 46.8752 42.7144C46.676 42.7986 46.4267 42.8408 46.127 42.8408H44.9206L44.5681 44.4756H44.0273L44.8753 40.4772H46.4743Z" fill="#918F90"></path><path d="M49.1221 43.9041C49.2585 44.0499 49.4594 44.1228 49.7249 44.1228C49.9035 44.1228 50.0595 44.0779 50.1945 43.9884C50.3292 43.8986 50.4428 43.7857 50.5357 43.6498C50.6289 43.5133 50.699 43.3652 50.7466 43.2043C50.7939 43.044 50.8174 42.8928 50.8174 42.751C50.8174 42.6392 50.8022 42.5327 50.7722 42.432C50.7414 42.3311 50.6945 42.2441 50.6299 42.1713C50.5654 42.0984 50.4849 42.0407 50.3879 41.9976C50.2912 41.9548 50.1762 41.9333 50.0436 41.9333C49.8575 41.9333 49.6946 41.9783 49.5544 42.0677C49.4138 42.1574 49.2964 42.2703 49.2018 42.4064C49.1069 42.5427 49.0354 42.693 48.9881 42.8572C48.9408 43.0217 48.9173 43.1784 48.9173 43.3276C48.9173 43.5665 48.9857 43.7589 49.1221 43.9041ZM48.5444 42.6501C48.6183 42.4298 48.7264 42.2357 48.869 42.0677C49.0109 41.8999 49.1835 41.7651 49.3866 41.6644C49.5892 41.5639 49.8199 41.5135 50.0782 41.5135C50.4759 41.5135 50.7798 41.6151 50.9883 41.8187C51.1969 42.0221 51.3015 42.3198 51.3015 42.7116C51.3015 42.9467 51.2652 43.1746 51.1931 43.3949C51.1209 43.6152 51.0146 43.8103 50.8744 43.9798C50.7342 44.1498 50.5633 44.285 50.3623 44.3859C50.161 44.4867 49.9318 44.5371 49.6738 44.5371C49.4805 44.5371 49.3068 44.507 49.1532 44.4473C48.9995 44.3879 48.8697 44.3047 48.7637 44.1983C48.6573 44.092 48.5759 43.9652 48.5189 43.8176C48.4616 43.6704 48.4336 43.5088 48.4336 43.3331C48.4336 43.098 48.4705 42.8705 48.5444 42.6501Z" fill="#918F90"></path><path d="M54.5671 44.4756L54.419 42.2248H54.4076L53.3552 44.4756H52.8431L52.4961 41.5808H53.0078L53.1898 43.8821H53.2015L54.2598 41.5808H54.806L54.9483 43.8821H54.9597L56.0753 41.5808H56.5984L55.0795 44.4756H54.5671Z" fill="#918F90"></path><path d="M59.5529 42.4513C59.5319 42.3525 59.4939 42.2647 59.439 42.1881C59.3841 42.1115 59.3109 42.05 59.2201 42.0035C59.1289 41.9568 59.0171 41.9333 58.8841 41.9333C58.7439 41.9333 58.6179 41.9548 58.506 41.9976C58.3938 42.0407 58.2961 42.0994 58.2126 42.1744C58.1293 42.249 58.0593 42.3355 58.0023 42.4347C57.9457 42.5334 57.9001 42.6392 57.8659 42.751H59.573C59.5806 42.6501 59.5733 42.5504 59.5529 42.4513ZM57.7803 43.4229C57.7803 43.5347 57.8013 43.6345 57.8431 43.7222C57.8849 43.8103 57.9415 43.8828 58.0137 43.9408C58.0858 43.9988 58.1673 44.0433 58.2585 44.0752C58.3496 44.1069 58.4442 44.1228 58.5426 44.1228C58.7588 44.1228 58.9373 44.0752 59.0775 43.9798C59.218 43.8849 59.3223 43.7478 59.3907 43.5686H59.8744C59.8364 43.7288 59.7753 43.87 59.6921 43.9911C59.6085 44.1124 59.5084 44.2133 59.3907 44.2937C59.2729 44.3742 59.1421 44.4346 58.9977 44.4756C58.8537 44.5163 58.7022 44.5371 58.5426 44.5371C58.2999 44.5371 58.0979 44.5004 57.937 44.4276C57.7754 44.3552 57.6477 44.262 57.5527 44.148C57.4581 44.034 57.3915 43.909 57.3538 43.7726C57.3155 43.6366 57.2969 43.505 57.2969 43.378C57.2969 43.102 57.3376 42.849 57.4191 42.6195C57.5009 42.3898 57.6107 42.193 57.7492 42.0286C57.8877 41.8643 58.0486 41.7372 58.2329 41.6478C58.4166 41.558 58.6089 41.5135 58.8106 41.5135C59.2425 41.5135 59.5585 41.6253 59.7577 41.8495C59.9573 42.0735 60.0567 42.3888 60.0567 42.7959C60.0567 42.8705 60.0508 42.9413 60.0394 43.0086C60.028 43.0759 60.0187 43.1301 60.0108 43.1708H57.7975C57.7861 43.253 57.7803 43.3373 57.7803 43.4229Z" fill="#918F90"></path><path d="M61.9977 41.5808L61.8551 42.2023H61.8665C61.9805 42.0044 62.1255 41.8401 62.3019 41.7092C62.4787 41.5787 62.69 41.5134 62.9366 41.5134C62.9669 41.5134 62.9956 41.5117 63.0218 41.5079C63.0484 41.5042 63.0767 41.5059 63.1071 41.5134L62.9935 42.023C62.9783 42.0193 62.9535 42.0172 62.9196 42.0172H62.8513C62.7902 42.0172 62.7408 42.0183 62.7035 42.0203C62.6652 42.0221 62.6179 42.0303 62.5609 42.0451C62.428 42.079 62.3095 42.137 62.2053 42.2189C62.101 42.301 62.0105 42.4001 61.9346 42.5159C61.8703 42.6091 61.8192 42.7182 61.7813 42.8431C61.7436 42.9685 61.7129 43.0852 61.6904 43.1932L61.4115 44.4756H60.9336L61.5423 41.5808H61.9977Z" fill="#918F90"></path><path d="M64.2058 41.0598L64.3308 40.4772H64.82L64.6954 41.0598H64.2058ZM64.5811 41.5808L63.9665 44.4756H63.4883L64.0974 41.5808H64.5811Z" fill="#918F90"></path><path d="M66.4912 41.5808L66.4004 42.0172H66.4115C66.533 41.8494 66.6867 41.7233 66.8724 41.6394C67.0582 41.5555 67.2539 41.5135 67.4584 41.5135C67.7353 41.5135 67.9414 41.5732 68.0761 41.6923C68.2107 41.8121 68.2777 42.0006 68.2777 42.2582C68.2777 42.3218 68.2701 42.4036 68.2553 42.5048C68.2401 42.6055 68.219 42.7116 68.1928 42.8238L67.834 44.4756H67.3503L67.7263 42.7844C67.7294 42.7547 67.7353 42.7202 67.7432 42.6808C67.7505 42.6418 67.7581 42.6004 67.766 42.5575C67.7733 42.5148 67.7798 42.4736 67.7857 42.4347C67.7912 42.3953 67.7943 42.3625 67.7943 42.3366C67.7943 42.1985 67.7446 42.0967 67.6465 42.0314C67.5478 41.9661 67.4262 41.9333 67.2823 41.9333C67.1493 41.9333 67.0174 41.965 66.8869 42.0285C66.7557 42.0921 66.6449 42.1722 66.5541 42.2693C66.4667 42.3442 66.398 42.4347 66.3486 42.5409C66.2999 42.6474 66.2599 42.7582 66.2298 42.8738L65.888 44.4756H65.4102L66.0244 41.5808H66.4912Z" fill="#918F90"></path><path d="M69.9085 43.5967C69.9386 43.69 69.9835 43.7718 70.0421 43.843C70.1012 43.9141 70.1761 43.971 70.2669 44.0139C70.3581 44.0566 70.4641 44.0781 70.5856 44.0781C70.7679 44.0781 70.9261 44.0332 71.0607 43.9437C71.1954 43.854 71.3066 43.7403 71.3939 43.6022C71.4806 43.4641 71.5462 43.314 71.59 43.1513C71.6335 42.9891 71.6553 42.8351 71.6553 42.6894C71.6553 42.4619 71.5935 42.2788 71.4706 42.1407C71.3473 42.0026 71.1581 41.9335 70.9043 41.9335C70.7337 41.9335 70.5835 41.9805 70.4548 42.0737C70.3256 42.1669 70.2179 42.2819 70.1305 42.418C70.0432 42.5544 69.9769 42.7014 69.9313 42.8603C69.8857 43.0192 69.8626 43.1655 69.8626 43.2998C69.8626 43.4044 69.8781 43.5032 69.9085 43.5967ZM71.7634 44.4842C71.7254 44.6201 71.686 44.739 71.6439 44.8397C71.5186 45.1309 71.3442 45.3379 71.1205 45.4612C70.8967 45.5842 70.625 45.646 70.3073 45.646C70.1547 45.646 70.01 45.6291 69.8716 45.5956C69.7328 45.5621 69.6105 45.5096 69.5045 45.4388C69.3982 45.368 69.3122 45.2755 69.2456 45.1615C69.1793 45.0477 69.1441 44.9105 69.1406 44.75H69.6181C69.6257 44.8474 69.6513 44.9264 69.6951 44.9879C69.7386 45.0497 69.7939 45.098 69.8602 45.1336C69.9265 45.1692 70.0031 45.1934 70.0905 45.2064C70.1778 45.2193 70.2669 45.2261 70.3581 45.2261C70.5435 45.2261 70.6965 45.1923 70.8159 45.1254C70.9357 45.0579 71.0331 44.9703 71.1091 44.8622C71.185 44.7538 71.2448 44.6298 71.2879 44.4897C71.3318 44.3498 71.3725 44.2089 71.4105 44.0667L71.3991 44.056C71.2931 44.2124 71.1605 44.3246 71.001 44.3917C70.8418 44.459 70.6692 44.4924 70.4831 44.4924C70.3015 44.4924 70.1409 44.4638 70.0024 44.4057C69.864 44.3477 69.7494 44.2655 69.6582 44.1595C69.567 44.0529 69.4976 43.9269 69.4503 43.7815C69.403 43.6358 69.3792 43.4752 69.3792 43.2998C69.3792 43.0871 69.4144 42.874 69.4849 42.6618C69.555 42.4486 69.6551 42.2574 69.7863 42.0876C69.9172 41.9177 70.0774 41.7795 70.2669 41.6732C70.4568 41.5668 70.6709 41.5137 70.9102 41.5137C71.02 41.5137 71.1253 41.5275 71.2258 41.5558C71.3262 41.5838 71.4191 41.6228 71.5048 41.6732C71.59 41.7235 71.6615 41.7855 71.7209 41.8579C71.7796 41.9307 71.8203 42.0119 71.8435 42.1018V42.1128H71.8545L71.9453 41.581H72.4008L71.8714 44.056C71.8376 44.2051 71.8014 44.3477 71.7634 44.4842Z" fill="#918F90"></path><path d="M77.6726 42.1965C78.2495 42.1965 78.5378 41.943 78.5378 41.4351C78.5378 41.3156 78.5123 41.222 78.4608 41.1551C78.4097 41.0877 78.3441 41.0376 78.2647 41.0038C78.1853 40.9703 78.0986 40.9489 78.0054 40.9396C77.9125 40.93 77.8245 40.9254 77.7413 40.9254H76.7396L76.4665 42.1965H77.6726ZM77.3884 44.0274C77.4564 44.0274 77.5459 44.0212 77.656 44.0081C77.7658 43.995 77.8735 43.9612 77.9802 43.9072C78.0866 43.853 78.1781 43.7737 78.2561 43.6694C78.3338 43.5648 78.3728 43.4207 78.3728 43.2381C78.3728 43.1111 78.3497 43.0085 78.3044 42.9302C78.2592 42.8514 78.1974 42.7921 78.1194 42.7509C78.042 42.7098 77.9526 42.6819 77.8521 42.667C77.7516 42.6518 77.646 42.6443 77.5365 42.6443H76.3757L76.0798 44.0274H77.3884ZM77.946 40.4772C78.3441 40.4772 78.6328 40.5615 78.8106 40.7293C78.9891 40.8975 79.0786 41.1326 79.0786 41.4351C79.0786 41.5469 79.0602 41.6564 79.024 41.7624C78.9884 41.8691 78.937 41.9661 78.8703 42.0538C78.8044 42.1416 78.7233 42.2162 78.629 42.2775C78.534 42.3393 78.4256 42.3794 78.3044 42.3981V42.4094C78.4902 42.4616 78.6383 42.5597 78.7485 42.7033C78.8583 42.847 78.9132 43.0251 78.9132 43.2381C78.9132 43.4284 78.8762 43.6 78.8023 43.7529C78.7284 43.9063 78.6259 44.036 78.495 44.1424C78.3642 44.2487 78.2115 44.331 78.0368 44.389C77.8625 44.447 77.6746 44.4756 77.4737 44.4756H75.4648L76.3132 40.4772H77.946Z" fill="#918F90"></path><path d="M82.2951 42.4513C82.2741 42.3525 82.2361 42.2647 82.1812 42.1881C82.1266 42.1115 82.0531 42.05 81.9623 42.0035C81.8711 41.9568 81.7593 41.9333 81.6267 41.9333C81.4861 41.9333 81.3601 41.9548 81.2482 41.9976C81.1367 42.0407 81.0383 42.0994 80.9547 42.1744C80.8715 42.249 80.8014 42.3355 80.7445 42.4347C80.6878 42.5334 80.6423 42.6392 80.6081 42.751H82.3152C82.3227 42.6501 82.3158 42.5504 82.2951 42.4513ZM80.5225 43.4229C80.5225 43.5347 80.5439 43.6345 80.5853 43.7222C80.6271 43.8103 80.684 43.8828 80.7559 43.9408C80.828 43.9988 80.9095 44.0433 81.0007 44.0752C81.0918 44.1069 81.1864 44.1228 81.2848 44.1228C81.501 44.1228 81.6798 44.0752 81.82 43.9798C81.9602 43.8849 82.0645 43.7478 82.1328 43.5686H82.6166C82.5786 43.7288 82.5182 43.87 82.4343 43.9911C82.3507 44.1124 82.2506 44.2133 82.1328 44.2937C82.0154 44.3742 81.8846 44.4346 81.7403 44.4756C81.5963 44.5163 81.4444 44.5371 81.2848 44.5371C81.0421 44.5371 80.8401 44.5004 80.6792 44.4276C80.518 44.3552 80.3899 44.262 80.2953 44.148C80.2003 44.034 80.1337 43.909 80.096 43.7726C80.0581 43.6366 80.0391 43.505 80.0391 43.378C80.0391 43.102 80.0798 42.849 80.1613 42.6195C80.2431 42.3898 80.3529 42.193 80.4914 42.0286C80.6298 41.8643 80.7911 41.7372 80.9751 41.6478C81.1588 41.558 81.3515 41.5135 81.5528 41.5135C81.9851 41.5135 82.301 41.6253 82.4999 41.8495C82.6994 42.0735 82.7989 42.3888 82.7989 42.7959C82.7989 42.8705 82.793 42.9413 82.7816 43.0086C82.7702 43.0759 82.7609 43.1301 82.753 43.1708H80.5397C80.5283 43.253 80.5225 43.3373 80.5225 43.4229Z" fill="#918F90"></path><path d="M84.4456 45.229C84.3849 45.3129 84.3186 45.3857 84.2468 45.4471C84.1746 45.509 84.0928 45.5572 84.002 45.5929C83.9108 45.6281 83.8045 45.646 83.6833 45.646C83.6263 45.646 83.5676 45.6394 83.5065 45.6263C83.4461 45.6132 83.3929 45.5956 83.3477 45.5732L83.4326 45.1867C83.4706 45.2093 83.5162 45.2279 83.5697 45.243C83.6225 45.258 83.6684 45.2651 83.7061 45.2651C83.8155 45.2651 83.9049 45.2361 83.9733 45.1785C84.042 45.1205 84.1042 45.0449 84.1608 44.9517L84.457 44.4758L83.9391 41.581H84.457L84.7985 43.8824H84.8099L86.0446 41.581H86.5736L84.6276 44.963C84.5668 45.0563 84.5061 45.1449 84.4456 45.229Z" fill="#918F90"></path><path d="M87.8838 43.9041C88.0198 44.0499 88.2208 44.1228 88.4867 44.1228C88.6652 44.1228 88.8216 44.0779 88.9562 43.9884C89.0909 43.8986 89.2045 43.7857 89.2977 43.6498C89.3903 43.5133 89.4604 43.3652 89.5083 43.2043C89.5556 43.044 89.5791 42.8928 89.5791 42.751C89.5791 42.6392 89.5639 42.5327 89.5339 42.432C89.5032 42.3311 89.4562 42.2441 89.3916 42.1713C89.3271 42.0984 89.2463 42.0407 89.1496 41.9976C89.0529 41.9548 88.9383 41.9333 88.8054 41.9333C88.6192 41.9333 88.4563 41.9783 88.3161 42.0677C88.1759 42.1574 88.0582 42.2703 87.9632 42.4064C87.8683 42.5427 87.7971 42.693 87.7498 42.8572C87.7025 43.0217 87.6787 43.1784 87.6787 43.3276C87.6787 43.5665 87.7471 43.7589 87.8838 43.9041ZM87.3061 42.6501C87.38 42.4298 87.4878 42.2357 87.6304 42.0677C87.773 41.8999 87.9456 41.7651 88.1479 41.6644C88.351 41.5639 88.5816 41.5135 88.8395 41.5135C89.2376 41.5135 89.5415 41.6151 89.75 41.8187C89.9586 42.0221 90.0629 42.3198 90.0629 42.7116C90.0629 42.9467 90.0266 43.1746 89.9548 43.3949C89.8826 43.6152 89.7763 43.8103 89.6361 43.9798C89.4959 44.1498 89.325 44.285 89.124 44.3859C88.9227 44.4867 88.6935 44.5371 88.4356 44.5371C88.2419 44.5371 88.0685 44.507 87.9149 44.4473C87.7612 44.3879 87.6311 44.3047 87.5254 44.1983C87.4187 44.092 87.3372 43.9652 87.2806 43.8176C87.2233 43.6704 87.1953 43.5088 87.1953 43.3331C87.1953 43.098 87.2319 42.8705 87.3061 42.6501Z" fill="#918F90"></path><path d="M92.0811 41.5808L91.9903 42.0172H92.0013C92.1232 41.8494 92.2765 41.7233 92.4623 41.6394C92.6487 41.5555 92.8441 41.5135 93.0489 41.5135C93.3251 41.5135 93.5312 41.5732 93.6663 41.6923C93.8006 41.8121 93.8679 42.0006 93.8679 42.2582C93.8679 42.3218 93.8603 42.4036 93.8451 42.5048C93.8299 42.6055 93.8092 42.7116 93.783 42.8238L93.4242 44.4756H92.9405L93.3161 42.7844C93.3196 42.7547 93.3251 42.7202 93.3331 42.6808C93.3407 42.6418 93.3482 42.6004 93.3558 42.5575C93.3634 42.5148 93.37 42.4736 93.3759 42.4347C93.3817 42.3953 93.3845 42.3625 93.3845 42.3366C93.3845 42.1985 93.3351 42.0967 93.2367 42.0314C93.138 41.9661 93.0164 41.9333 92.8721 41.9333C92.7395 41.9333 92.6076 41.965 92.4768 42.0285C92.3459 42.0921 92.2347 42.1722 92.1443 42.2693C92.0569 42.3442 91.9878 42.4347 91.9392 42.5409C91.8898 42.6474 91.8497 42.7582 91.8197 42.8738L91.4782 44.4756H91L91.6146 41.5808H92.0811Z" fill="#918F90"></path><path d="M95.6043 43.9156C95.7238 44.0537 95.9161 44.1228 96.182 44.1228C96.3636 44.1228 96.5269 44.0761 96.6716 43.9829C96.8156 43.8893 96.9357 43.7716 97.0324 43.6301C97.1291 43.4882 97.2033 43.3324 97.2544 43.1625C97.3059 42.9927 97.3311 42.8331 97.3311 42.6837C97.3311 42.4672 97.2676 42.2879 97.1405 42.1461C97.0134 42.0044 96.8304 41.9333 96.5915 41.9333C96.3981 41.9333 96.2293 41.9772 96.0853 42.0648C95.9413 42.1529 95.8195 42.2658 95.7211 42.4037C95.6223 42.5418 95.5484 42.695 95.499 42.8628C95.4497 43.031 95.4251 43.1954 95.4251 43.3556C95.4251 43.5907 95.4845 43.7775 95.6043 43.9156ZM96.9786 44.4756L97.0808 44.0613H97.0694C96.925 44.2478 96.7766 44.3742 96.6229 44.4391C96.4693 44.5043 96.2935 44.5371 96.0967 44.5371C95.9106 44.5371 95.7456 44.5081 95.6012 44.4504C95.4573 44.3924 95.3361 44.312 95.2373 44.2098C95.1386 44.1069 95.0643 43.9829 95.0156 43.8372C94.9659 43.6914 94.9414 43.5309 94.9414 43.3556C94.9414 43.1352 94.9783 42.916 95.0522 42.6978C95.1265 42.4792 95.2325 42.2824 95.3709 42.1071C95.5097 41.9316 95.6803 41.7886 95.8833 41.6786C96.0857 41.5688 96.3163 41.5135 96.5746 41.5135C96.6657 41.5135 96.7583 41.5217 96.8532 41.5387C96.9482 41.5556 97.0379 41.5836 97.1232 41.6226C97.2089 41.662 97.2834 41.714 97.3484 41.7793C97.4126 41.8446 97.4602 41.9258 97.4906 42.023H97.502L97.8148 40.4773H98.293L97.434 44.4756H96.9786Z" fill="#918F90"></path><path d="M98.7225 31.9397C98.7736 31.9397 98.8223 31.938 98.8676 31.935C98.9138 31.9315 98.9546 31.9221 98.9905 31.9067C99.0257 31.8906 99.054 31.8671 99.0754 31.8348C99.0968 31.8027 99.1072 31.7575 99.1072 31.6994C99.1072 31.6506 99.0975 31.612 99.0789 31.5826C99.0599 31.554 99.0354 31.5316 99.0053 31.5161C98.9753 31.5007 98.9404 31.4899 98.9014 31.4844C98.8624 31.4788 98.8241 31.476 98.7861 31.476H98.485V31.9397H98.7225ZM98.8227 31.2926C98.9967 31.2926 99.1255 31.327 99.2094 31.3958C99.2933 31.465 99.3347 31.5694 99.3347 31.7094C99.3347 31.8409 99.2978 31.9372 99.2246 31.998C99.151 32.0596 99.0595 32.0957 98.9501 32.1068L99.3686 32.7503H99.1241L98.7257 32.1232H98.485V32.7503H98.2575V31.2926H98.8227ZM97.7906 32.4419C97.8435 32.5722 97.9156 32.6851 98.0082 32.7806C98.1007 32.8762 98.2102 32.9514 98.3358 33.0061C98.4619 33.0605 98.5986 33.0877 98.746 33.0877C98.8911 33.0877 99.0257 33.0605 99.151 33.0061C99.2757 32.9514 99.3841 32.8762 99.477 32.7806C99.5695 32.6851 99.642 32.5722 99.6945 32.4419C99.7467 32.3118 99.7729 32.17 99.7729 32.0166C99.7729 31.8676 99.7467 31.7283 99.6945 31.5995C99.642 31.4705 99.5695 31.359 99.477 31.2643C99.3841 31.1699 99.2757 31.095 99.151 31.0405C99.0257 30.9859 98.8911 30.9588 98.746 30.9588C98.5986 30.9588 98.4619 30.9859 98.3358 31.0405C98.2102 31.095 98.1007 31.1699 98.0082 31.2643C97.9156 31.359 97.8435 31.4705 97.7906 31.5995C97.7385 31.7283 97.7123 31.8676 97.7123 32.0166C97.7123 32.17 97.7385 32.3118 97.7906 32.4419ZM97.5852 31.526C97.6518 31.3748 97.743 31.2438 97.8576 31.1325C97.9726 31.0213 98.1062 30.934 98.2592 30.8703C98.4121 30.8072 98.5741 30.7753 98.746 30.7753C98.9176 30.7753 99.0792 30.8072 99.2311 30.8703C99.3831 30.934 99.5157 31.0213 99.6289 31.1325C99.7432 31.2438 99.833 31.3748 99.9003 31.526C99.9673 31.6773 100.001 31.8409 100.001 32.0166C100.001 32.1967 99.9673 32.3628 99.9003 32.5155C99.833 32.6679 99.7432 32.8002 99.6289 32.9123C99.5157 33.0249 99.3831 33.1121 99.2311 33.1744C99.0792 33.2367 98.9176 33.2676 98.746 33.2676C98.5741 33.2676 98.4121 33.2367 98.2592 33.1744C98.1062 33.1121 97.9726 33.0249 97.8576 32.9123C97.743 32.8002 97.6518 32.6679 97.5852 32.5155C97.5179 32.3628 97.4844 32.1967 97.4844 32.0166C97.4844 31.8409 97.5179 31.6773 97.5852 31.526Z" fill="#5A5758"></path></g><defs><clipPath id="clip0_3615_2401"><rect width="100" height="45.646" fill="white"></rect></clipPath></defs></svg>