<svg xmlns="http://www.w3.org/2000/svg" width="100" height="54" viewBox="0 0 100 54" fill="none"><path d="M56.1407 12.0158C56.1407 12.0158 53.6875 15.5738 49.2285 19.1253C49.2285 19.1253 53.0496 13.5679 53.5034 10.0164C53.5034 10.0164 49.7743 8.5564 48.1367 6.91878C48.1367 6.91878 51.2278 8.5564 54.3189 6.46498C54.3189 6.46498 55.0489 4.27491 54.7793 1.09175C54.7793 1.09175 56.5945 3.45939 56.7786 6.01118C56.7786 6.01118 60.3301 4.64321 61.3297 0C61.3297 0 62.6911 4.64321 58.4162 8.64847C58.4162 8.64847 62.0532 9.83229 63.237 14.8438C63.237 15.0214 61.6915 11.4699 56.1407 12.0158Z" fill="white"></path><path fill-rule="evenodd" clip-rule="evenodd" d="M19.6514 26.4056C19.6514 33.0548 15.462 37.4283 7.91187 37.4283H0.0854982V15.8433C1.63104 15.6592 3.45281 15.4816 7.00427 15.4816C15.2844 15.3895 19.6514 19.3948 19.6514 26.4056ZM14.4623 26.4056C14.4623 21.5783 12.1868 18.941 7.366 18.941C6.63597 18.941 5.91253 18.941 5.18251 19.0331V33.9689H7.18185C11.0095 33.9689 14.4623 32.4168 14.4623 26.4056ZM65.4193 31.7789V15.2974C65.7876 15.2054 66.4255 15.1133 67.149 15.1133C68.7866 15.1133 70.4242 15.6592 70.4242 17.9413V20.3944H75.6133V23.9525H70.4242V31.5092C70.4242 33.1468 71.4305 33.9689 72.6998 33.9689C74.1598 33.9689 75.2516 33.1468 75.5212 32.9627C75.7974 33.331 76.5209 34.3307 76.5209 35.1527C76.5209 35.4224 76.4354 35.7907 76.1592 36.0603C75.8829 36.3366 74.5215 37.698 71.2463 37.698C66.4255 37.6125 65.4193 34.7844 65.4193 31.7789ZM55.4094 19.8486L51.9566 29.7795L49.3127 37.4283H43.7619L41.3088 30.3254C36.2118 16.0275 30.4768 7.64864 20.7432 7.64864C15.3765 7.64864 11.6409 9.92421 8.64189 12.476C8.54982 12.5681 8.45774 12.5681 8.36567 12.5681C8.1859 12.5681 8.09602 12.476 8.09602 12.2918C8.09602 12.1998 8.09602 12.1077 8.27359 11.9301C11.1871 8.74039 15.5541 5.91895 22.0191 5.91895C29.8454 5.91895 39.7632 10.1084 45.3995 26.866L46.9517 31.3251C46.9517 31.3251 48.0434 27.5894 48.6814 25.406C49.589 22.0386 51.4962 20.1248 55.4094 19.8486ZM56.8695 20.0327C59.8685 20.7627 61.8744 22.6766 61.8744 25.498V37.3362H59.6909C57.8691 37.3362 56.8695 36.4286 56.8695 34.5148V20.0327ZM36.7576 33.1468C36.7576 34.9686 37.0339 36.3366 37.5797 37.1521C37.1194 37.3362 36.3959 37.6059 35.12 37.6059C32.7524 37.6059 32.3907 36.3366 32.2065 35.6986C31.6606 36.2445 30.2072 37.6059 26.8399 37.6059C24.1105 37.6059 21.197 35.9683 21.197 32.2327C21.197 27.9577 25.564 26.4977 31.0227 26.4977H31.8448V26.136C31.8448 24.3142 30.3913 23.4 28.2078 23.4C25.8402 23.4 23.6567 24.5839 23.2029 24.8601C22.8346 24.3142 22.3808 23.5842 22.3808 22.7621C22.3808 21.2165 25.2022 20.0327 28.9313 20.0327C33.9362 20.0327 36.6656 21.7624 36.6656 26.4977V33.1468H36.7576ZM31.5751 29.0495C28.8458 29.0495 26.0243 29.7795 26.0243 32.0551C26.0243 33.5086 27.024 34.5148 28.7537 34.5148C30.5689 34.5148 31.5751 33.5086 31.7527 33.2389C31.9369 33.0548 32.0289 32.6908 32.0289 32.1472V29.0495H31.5751ZM93.6337 33.1468C93.6337 34.9686 93.9033 36.3366 94.4492 37.1521C93.9954 37.3362 93.2654 37.6059 91.9961 37.6059C89.6284 37.6059 89.2667 36.3366 89.0825 35.6986C88.5367 36.2445 87.0832 37.6059 83.7159 37.6059C80.9865 37.6059 78.073 35.9683 78.073 32.2327C78.073 27.9577 82.44 26.4977 87.8987 26.4977H88.7208V26.136C88.7208 24.3142 87.2608 23.4 85.0773 23.4C82.7162 23.4 80.5261 24.5839 80.0723 24.8601C79.7106 24.3142 79.2568 23.5842 79.2568 22.7621C79.2568 21.2165 82.0783 20.0327 85.8073 20.0327C90.8122 20.0327 93.5416 21.7624 93.5416 26.4977V33.1468H93.6337ZM88.3591 29.0495C85.6232 29.0495 82.8083 29.7795 82.8083 32.0551C82.8083 33.5086 83.808 34.5148 85.5377 34.5148C87.3528 34.5148 88.3591 33.5086 88.5367 33.2389C88.7208 33.0548 88.8129 32.6908 88.8129 32.1472V29.0495H88.3591ZM1.72969 46.6227C1.91384 46.6227 1.99934 46.6227 2.09142 46.5306C2.18349 46.5306 2.27557 46.4451 2.36764 46.353L4.82078 43.4395C4.91286 43.3474 5.00493 43.2553 5.09701 43.1633C5.18908 43.1633 5.28116 43.0712 5.45873 43.0712H6.55048L3.64354 46.5306C3.55146 46.6227 3.45939 46.7147 3.36731 46.8068C3.27524 46.8989 3.18316 46.8989 3.09109 46.991C3.18316 46.991 3.27524 47.083 3.36731 47.1685C3.45939 47.2606 3.55146 47.3527 3.64354 47.4448L6.64255 51.2724C6.55048 51.2724 5.28116 51.2724 5.28116 51.2724C5.18908 51.2724 5.18908 51.2724 5.09701 51.1804L4.91286 50.9962L2.36764 47.8986C2.36764 47.8065 2.27557 47.8065 2.27557 47.8065L2.18349 47.7144C2.09142 47.7144 2.09142 47.7144 1.99934 47.6289C1.91384 47.6289 1.82177 47.6289 1.82177 47.6289H1.36797V51.2724H0V43.1633H1.2759V46.6227H1.72969ZM8.82604 43.8012C8.82604 43.8933 8.82604 43.9854 8.73397 44.0774C8.73397 44.1629 8.64189 44.255 8.54982 44.3471C8.46432 44.4392 8.37225 44.4392 8.28017 44.5312C8.1881 44.5312 8.09602 44.6233 8.00395 44.6233C7.91845 44.6233 7.82637 44.6233 7.7343 44.5312C7.64222 44.5312 7.55015 44.4392 7.45807 44.3471C7.37257 44.255 7.37257 44.1629 7.2805 44.0774C7.2805 43.9854 7.18843 43.8933 7.18843 43.8012C7.18843 43.7091 7.18842 43.6171 7.2805 43.5316C7.2805 43.4395 7.37257 43.3474 7.45807 43.2553C7.55015 43.1633 7.64222 43.1633 7.7343 43.0712C7.82637 43.0712 7.91845 42.9791 8.00395 42.9791C8.09602 42.9791 8.1881 42.9791 8.28017 43.0712C8.37225 43.0712 8.46432 43.1633 8.54982 43.2553C8.64189 43.3474 8.64189 43.4395 8.73397 43.5316C8.82604 43.5316 8.82604 43.6171 8.82604 43.8012ZM7.45807 45.5309H8.64189V51.2724H7.45807V45.5309ZM15.0148 51.1738H14.2848C14.105 51.1738 14.0151 51.0839 14.0151 50.9041L13.9231 50.2662C13.6468 50.5358 13.3772 50.8121 13.101 50.9041C12.8291 51.0839 12.4652 51.1738 12.0092 51.1738C11.6475 51.1738 11.3713 51.0817 11.1016 50.9896C10.8254 50.9041 10.6478 50.72 10.4637 50.4438C10.2795 50.1741 10.1019 49.8979 10.0099 49.5362C9.91779 49.1679 9.82572 48.7141 9.82572 48.2603C9.82572 47.8065 9.91779 47.4382 10.0099 47.0765C10.1019 46.7147 10.2795 46.4385 10.4637 46.1623C10.6478 45.8926 10.9175 45.7085 11.2858 45.5309C11.5554 45.3468 11.9171 45.2547 12.2854 45.2547C12.6472 45.2547 12.9234 45.3468 13.101 45.4388C13.3772 45.5309 13.5548 45.7085 13.7389 45.8926V42.795H15.0148V51.1738ZM13.831 46.8923C13.6468 46.7147 13.4693 46.5306 13.2851 46.4385C13.101 46.3464 12.8313 46.3464 12.6472 46.3464C12.1912 46.3464 11.8272 46.5284 11.5554 46.8923C11.2858 47.2606 11.1937 47.7144 11.1937 48.4444C11.1937 48.8061 11.1937 49.0824 11.2858 49.352C11.3713 49.6282 11.4633 49.8058 11.5554 49.99C11.6475 50.1741 11.8316 50.2662 12.0092 50.3517C12.1934 50.4438 12.3775 50.4438 12.5551 50.4438C12.8313 50.4438 13.101 50.3517 13.3772 50.2662C13.5548 50.1741 13.831 49.8979 14.0151 49.7203V46.8923H13.831ZM17.6521 46.2544C17.7442 46.1689 17.9217 45.9847 18.0138 45.8926C18.1059 45.8006 18.29 45.7085 18.4676 45.6164C18.6518 45.5309 18.7438 45.5309 18.9214 45.4388C19.1056 45.4388 19.2897 45.3468 19.4673 45.3468C19.7435 45.3468 20.0132 45.4388 20.2894 45.5309C20.559 45.6164 20.7432 45.8006 20.9273 45.9847C21.1049 46.1689 21.197 46.4385 21.2891 46.7147C21.3811 46.9844 21.3811 47.2606 21.3811 47.6223V51.2659H20.1973V47.6223C20.1973 47.2606 20.1052 46.8923 19.9277 46.7147C19.7435 46.5306 19.4673 46.3464 19.1056 46.3464C18.8359 46.3464 18.5597 46.4385 18.3755 46.5306C18.1059 46.6227 17.9217 46.8002 17.7442 47.0765V51.2659H16.5603V45.5309H17.1983C17.3781 45.5309 17.4679 45.6208 17.4679 45.8006L17.6521 46.2544ZM23.6567 48.5299H23.6633C23.6589 48.5036 23.6567 48.4729 23.6567 48.4378V48.5299ZM23.8408 49.2599C23.9329 49.5362 24.025 49.7137 24.2026 49.8979C24.3867 50.082 24.4788 50.1741 24.7484 50.2662C24.9326 50.3517 25.2022 50.3517 25.3864 50.3517C25.6626 50.3517 25.8402 50.3517 26.0243 50.2662C26.2085 50.1741 26.3861 50.1741 26.4781 50.082C26.5702 49.99 26.7544 49.99 26.8399 49.8979C26.9319 49.8058 27.024 49.8058 27.1161 49.8058C27.2082 49.8058 27.3002 49.8058 27.3002 49.8979L27.662 50.3517C27.4778 50.5358 27.3857 50.6279 27.2082 50.8121C27.024 50.8998 26.842 50.9896 26.6623 51.0817C26.4781 51.1738 26.2085 51.1738 26.0243 51.2659C25.8402 51.2659 25.5705 51.3579 25.3864 51.3579C25.0247 51.3579 24.6564 51.2659 24.2946 51.1738C23.9329 51.0817 23.6567 50.8121 23.387 50.6279C23.1108 50.3517 22.9332 50.082 22.8412 49.6282C22.657 49.2599 22.657 48.8061 22.657 48.2603C22.657 47.8986 22.7491 47.5303 22.8412 47.1685C22.9332 46.8002 23.1108 46.5306 23.387 46.2544C23.6567 45.9847 23.9329 45.8006 24.2026 45.6164C24.5709 45.4388 24.9326 45.4388 25.3864 45.4388C25.7481 45.4388 26.0243 45.5243 26.3861 45.6164C26.6623 45.7085 26.9363 45.8904 27.2082 46.1623C27.3879 46.3464 27.5699 46.6205 27.754 46.9844C27.8461 47.3461 27.9382 47.7144 27.9382 48.0761C27.9382 48.2603 27.9382 48.3523 27.8461 48.4444C27.8461 48.5299 27.754 48.5299 27.662 48.5299H23.6633C23.6764 48.8522 23.7553 49.0955 23.8408 49.2599ZM26.5702 47.7144C26.5702 47.5303 26.5702 47.3461 26.4781 47.1685C26.3861 46.9844 26.294 46.8002 26.2085 46.7147C26.1164 46.6227 25.9323 46.4385 25.7481 46.4385C25.5705 46.3464 25.3864 46.3464 25.2022 46.3464C24.7484 46.3464 24.3867 46.4385 24.2026 46.7147C23.9329 46.9844 23.7488 47.3461 23.7488 47.8065H26.5702V47.7144ZM33.7586 45.5243L30.5755 52.8114C30.5755 52.9035 30.4834 52.9956 30.3913 52.9956C30.2992 53.0876 30.2072 53.0876 30.1217 53.0876H29.2075L30.2992 50.8055L27.9382 45.5243H29.0299C29.1154 45.5243 29.2075 45.5243 29.2996 45.6164C29.3916 45.7085 29.3916 45.7085 29.3916 45.8006L30.753 49.0758C30.753 49.1679 30.8451 49.2599 30.8451 49.352C30.8451 49.4441 30.9372 49.5362 30.9372 49.6217C30.9372 49.5362 31.0293 49.4441 31.0293 49.352C31.0293 49.2599 31.1213 49.1679 31.1213 49.0758L32.3907 45.8006C32.3907 45.7085 32.4827 45.7085 32.4827 45.6164C32.5748 45.6164 32.5748 45.5243 32.6669 45.5243H33.7586ZM42.8609 49.4441C42.9464 49.4441 42.9464 49.4441 43.0385 49.5362L43.5843 50.082C43.2226 50.4438 42.8609 50.8055 42.4005 50.9896C41.9467 51.1738 41.3088 51.3579 40.6708 51.3579C40.0395 51.3579 39.5791 51.2659 39.0332 51.0817C38.5794 50.8976 38.1256 50.6279 37.856 50.2596C37.4877 49.8979 37.218 49.4441 37.0339 48.9903C36.8541 48.4422 36.7642 47.8942 36.7642 47.3461C36.7642 46.7103 36.8541 46.1645 37.0339 45.7085C37.218 45.1626 37.4877 44.8009 37.856 44.4326C38.2177 44.0709 38.5794 43.7946 39.1253 43.6171C39.6712 43.4329 40.125 43.3408 40.7629 43.3408C41.3088 43.3408 41.8547 43.4329 42.315 43.6171C42.7688 43.7946 43.1305 44.0709 43.4923 44.3405L43.0385 44.9785L42.9464 45.0705C42.9464 45.0705 42.8609 45.0705 42.7688 45.0705C42.6768 45.0705 42.5847 45.0705 42.4926 44.9785C42.4005 44.8864 42.315 44.8009 42.1309 44.7088C41.9467 44.6167 41.7648 44.5247 41.585 44.4326C41.4009 44.3405 41.0391 44.3405 40.7629 44.3405C40.4012 44.3405 40.0395 44.4326 39.6712 44.5247C39.3094 44.6167 39.0332 44.8864 38.8556 45.0705C38.5794 45.3468 38.4018 45.6164 38.3098 45.9847C38.2177 46.3464 38.1256 46.8002 38.1256 47.254C38.1256 47.7144 38.2177 48.1682 38.3098 48.5299C38.4018 48.8982 38.6715 49.2599 38.8556 49.4441C39.1275 49.7159 39.3993 49.8979 39.6712 49.99C40.0395 50.082 40.3091 50.1741 40.6708 50.1741C40.855 50.1741 41.1312 50.1741 41.3088 50.1741C41.4929 50.1741 41.6771 50.082 41.7692 50.082C41.9467 49.99 42.0388 49.99 42.223 49.8979C42.315 49.8058 42.4926 49.7137 42.5847 49.6217C42.6768 49.4441 42.7688 49.4441 42.8609 49.4441ZM44.3144 46.2544C44.9523 45.6164 45.7678 45.3468 46.5899 45.3468C46.9517 45.3468 47.2279 45.4323 47.4975 45.5243C47.7738 45.6164 47.9513 45.8006 48.1355 45.9847C48.3196 46.1623 48.4117 46.4385 48.4972 46.7082C48.5893 46.9844 48.6814 47.254 48.6814 47.6223V51.2659H48.1355C48.0434 51.2659 47.9513 51.2659 47.8658 51.1738C47.7738 51.1738 47.7738 51.0817 47.6817 50.9896L47.5896 50.5358C47.4055 50.6279 47.32 50.8055 47.1358 50.8976C46.9517 50.9896 46.8596 51.0817 46.682 51.1738C46.4979 51.2659 46.4058 51.2659 46.2216 51.3579C46.0441 51.3579 45.8599 51.4434 45.6758 51.4434C45.4061 51.4434 45.222 51.4434 45.0444 51.3579C44.8602 51.2659 44.6783 51.1738 44.4985 51.0817C44.3144 50.9896 44.2223 50.8055 44.1302 50.6279C44.0381 50.4438 44.0381 50.1741 44.0381 49.99C44.0381 49.8058 44.1302 49.5362 44.2223 49.352C44.3144 49.1679 44.4963 48.9859 44.7682 48.8061C45.0444 48.622 45.4061 48.5299 45.8599 48.3523C46.3137 48.2603 46.8596 48.1682 47.4975 48.1682V47.8065C47.4975 47.3461 47.4055 47.0765 47.2279 46.8923C47.0437 46.7125 46.7697 46.6227 46.4058 46.6227C46.1361 46.6227 45.952 46.6227 45.8599 46.7082C45.7678 46.8002 45.5903 46.8002 45.4061 46.8923C45.314 46.9844 45.222 46.9844 45.1299 47.0765C45.0444 47.1685 44.9523 47.1685 44.8602 47.1685C44.7682 47.1685 44.6761 47.1685 44.6761 47.0765C44.584 47.0765 44.584 46.9844 44.4985 46.8923L44.3144 46.2544ZM47.5896 48.7141C47.1358 48.7141 46.7675 48.8061 46.4979 48.8061C46.2216 48.8061 45.952 48.8982 45.7678 48.9837C45.5837 49.0758 45.4916 49.1679 45.4061 49.2599C45.314 49.352 45.314 49.5362 45.314 49.6217C45.314 49.7137 45.314 49.8979 45.4061 49.99C45.4061 50.082 45.4916 50.1675 45.5837 50.2596C45.6758 50.3517 45.7678 50.3517 45.8599 50.3517C45.952 50.3517 46.0375 50.3517 46.2216 50.3517C46.4979 50.3517 46.7675 50.2596 47.0437 50.1675C47.2213 50.082 47.4975 49.8979 47.6817 49.6217V48.7141H47.5896ZM51.3186 46.5306C51.4962 46.1623 51.6804 45.8926 51.9566 45.7085C52.2262 45.5243 52.5025 45.4323 52.8642 45.4323C52.9563 45.4323 53.1404 45.4323 53.2259 45.4323C53.318 45.4323 53.4101 45.5243 53.5021 45.5243L53.4101 46.4385C53.4101 46.5306 53.4101 46.5306 53.318 46.5306C53.2259 46.5306 53.1404 46.5306 52.9563 46.5306C52.8642 46.5306 52.7721 46.5306 52.5945 46.5306C52.4104 46.5306 52.3183 46.5306 52.1342 46.6161C52.0421 46.7082 51.8645 46.7082 51.7724 46.8002C51.6804 46.8923 51.5883 46.9844 51.4962 47.1685C51.4107 47.254 51.3186 47.4382 51.3186 47.6223V51.1738H50.1348V45.5243H50.8648C50.9503 45.5243 51.0424 45.5243 51.1345 45.6164C51.2266 45.7085 51.2266 45.7085 51.2266 45.8926L51.3186 46.5306ZM54.9556 48.5299H54.9622C54.9578 48.5036 54.9556 48.4729 54.9556 48.4378V48.5299ZM55.1398 49.2599C55.2318 49.5362 55.3239 49.7137 55.5015 49.8979C55.6856 50.082 55.7777 50.1741 56.0474 50.2662C56.2315 50.3517 56.5077 50.3517 56.6853 50.3517C56.9615 50.3517 57.1391 50.3517 57.3232 50.2662C57.5074 50.1741 57.685 50.1741 57.777 50.082C57.8691 49.99 58.0533 49.99 58.1453 49.8979C58.2308 49.8058 58.3229 49.8058 58.415 49.8058C58.5071 49.8058 58.5991 49.8058 58.5991 49.8979L58.9609 50.3517C58.7833 50.5358 58.6912 50.6279 58.5071 50.8121C58.3229 50.8998 58.141 50.9896 57.9612 51.0817C57.777 51.1738 57.5074 51.1738 57.3232 51.2659C57.1391 51.2659 56.8695 51.3579 56.6853 51.3579C56.3236 51.3579 55.9619 51.2659 55.5936 51.1738C55.2318 51.0817 54.9556 50.8121 54.686 50.6279C54.4097 50.4438 54.2322 50.082 54.1401 49.6282C53.9559 49.2599 53.9559 48.8061 53.9559 48.2603C53.9559 47.8986 54.048 47.5303 54.1401 47.1685C54.2322 46.8002 54.4097 46.5306 54.686 46.2544C54.9556 45.9847 55.2318 45.8006 55.5015 45.6164C55.8698 45.4388 56.2315 45.4388 56.6853 45.4388C57.0536 45.4388 57.3232 45.5243 57.685 45.6164C57.9612 45.7085 58.2352 45.8904 58.5071 46.1623C58.6912 46.3464 58.8732 46.6205 59.0529 46.9844C59.145 47.3461 59.2371 47.7144 59.2371 48.0761C59.2371 48.2603 59.2371 48.3523 59.145 48.4444C59.145 48.5299 59.0529 48.5299 58.9609 48.5299H54.9622C54.9753 48.8522 55.0543 49.0955 55.1398 49.2599ZM57.8691 47.7144C57.8691 47.5303 57.8691 47.3461 57.777 47.1685C57.685 46.9844 57.5995 46.8002 57.5074 46.7147C57.4153 46.6227 57.2312 46.4385 57.0536 46.4385C56.8694 46.3464 56.6853 46.3464 56.5077 46.3464C56.0474 46.3464 55.6856 46.4385 55.5015 46.7147C55.3239 46.9844 55.0477 47.3461 55.0477 47.8065H57.8691V47.7144ZM98.1782 37.6059C97.172 37.6059 96.363 36.7904 96.363 35.7841C96.363 34.7713 97.172 33.9623 98.1782 33.9623C99.1845 33.9623 100 34.7713 100 35.7841C100 36.7904 99.1845 37.6059 98.1782 37.6059ZM99.6383 35.8302C99.6383 34.9949 98.9872 34.3241 98.1782 34.3241C97.3759 34.3241 96.7248 34.9949 96.7248 35.8302C96.7248 36.6588 97.3759 37.3297 98.1782 37.3297C98.9872 37.3297 99.6383 36.6588 99.6383 35.8302ZM97.8165 36.8759H97.5469V34.7779H98.3624C98.8162 34.7779 99.0924 34.962 99.0924 35.4158C99.0924 35.7841 98.8162 35.9617 98.5465 35.9617L99.0924 36.8759H98.7241L98.1782 35.9617H97.8165V36.8759ZM98.1782 35.692C98.4545 35.692 98.7241 35.692 98.7241 35.3303C98.7241 35.1462 98.4545 35.0541 98.2703 35.0541H97.8165V35.692H98.1782Z" fill="white"></path></svg>