<svg xmlns="http://www.w3.org/2000/svg" width="164" height="70" viewBox="0 0 164 70" fill="none"><g clip-path="url(#clip0_3615_2438)"><path d="M45.0143 44.7173C40.4346 44.7173 37.4029 41.2481 36.5572 39.9043C37.6423 31.4032 40.8177 28.7154 45.0143 28.7154C49.1632 28.7154 52.3865 31.9658 52.3865 36.7162C52.3865 41.4668 49.1632 44.7173 45.0143 44.7173ZM45.0143 23.4961C37.5466 23.4961 33.3659 28.2623 32.1691 33.1691C30.8127 30.6688 29.8075 27.3247 29.0256 24.2149H18.7014V36.7945C18.7014 41.3575 16.5792 44.7329 12.4304 44.7329C8.28161 44.7329 5.90405 41.3575 5.90405 36.7945L5.95191 24.2149H0V36.7945C0 40.4668 1.21272 43.7953 3.43073 46.1705C5.71257 48.6239 8.82414 49.9052 12.4304 49.9052C19.611 49.9052 24.6215 44.5141 24.6215 36.7945V28.3404C25.3713 31.122 27.1586 36.4663 30.5733 41.1544L27.382 58.9533H33.4297L35.5359 46.3424C36.2221 46.9049 36.9561 47.405 37.7379 47.8583C39.7645 49.1084 42.0782 49.8116 44.4718 49.8896C44.4718 49.8896 44.8387 49.9052 45.0303 49.9052C52.4343 49.9052 58.3223 44.2954 58.3223 36.7162C58.3223 29.1373 52.4183 23.4961 45.0143 23.4961Z" fill="white"></path><path d="M130.528 26.9039V24.2161H124.688V49.1094H130.607V39.3584C130.607 33.3578 131.166 29.0448 139.384 29.6073V23.9192C135.554 23.6379 132.57 24.4192 130.528 26.9039Z" fill="white"></path><path d="M89.424 24.2168L85.1316 41.625L80.5519 24.2168H73.0204L68.4247 41.625L64.1483 24.2168H58.1484L64.7228 49.1259H71.8396L76.7861 31.4364L81.6848 49.1259H88.8016L95.7589 24.2168H89.424Z" fill="white"></path><path d="M108.796 44.7329C104.583 44.7329 101.424 41.4826 101.424 36.7162C101.424 31.9502 104.599 28.7154 108.796 28.7154C112.945 28.7154 116.168 31.9658 116.168 36.7162C116.168 41.4668 112.945 44.7329 108.796 44.7329ZM108.796 23.4961C101.344 23.4961 95.5039 29.153 95.5039 36.7162C95.5039 44.2796 101.344 49.8896 108.796 49.8896C116.2 49.8896 122.088 44.2796 122.088 36.7162C122.088 29.153 116.216 23.4961 108.796 23.4961Z" fill="white"></path><path d="M147.873 36.8727H149.246L157.511 49.124H164.197L154.687 35.5443C159.299 33.7786 162.394 29.1687 162.394 24.215H156.49C156.49 29.5906 152.166 31.6221 147.873 31.6221V14.3857H141.938V49.124H147.857L147.873 36.8727Z" fill="white"></path></g><defs><clipPath id="clip0_3615_2438"><rect width="164" height="69.0526" fill="white"></rect></clipPath></defs></svg>